<?xml version="1.0" encoding="UTF-8" standalone="no"?>
<!-- Created with Inkscape (http://www.inkscape.org/) -->

<svg
   xmlns:dc="http://purl.org/dc/elements/1.1/"
   xmlns:cc="http://creativecommons.org/ns#"
   xmlns:rdf="http://www.w3.org/1999/02/22-rdf-syntax-ns#"
   xmlns:svg="http://www.w3.org/2000/svg"
   xmlns="http://www.w3.org/2000/svg"
   xmlns:sodipodi="http://sodipodi.sourceforge.net/DTD/sodipodi-0.dtd"
   xmlns:inkscape="http://www.inkscape.org/namespaces/inkscape"
   width="62.892139mm"
   height="74.685753mm"
   viewBox="0 0 62.892137 74.685751"
   version="1.1"
   id="svg8"
   inkscape:version="0.92.3 (2405546, 2018-03-11)"
   sodipodi:docname="logo_white.svg">
  <defs
     id="defs2" />
  <sodipodi:namedview
     id="base"
     pagecolor="#ffffff"
     bordercolor="#666666"
     borderopacity="1.0"
     inkscape:pageopacity="0.0"
     inkscape:pageshadow="2"
     inkscape:zoom="0.98994949"
     inkscape:cx="51.637051"
     inkscape:cy="220.80016"
     inkscape:document-units="mm"
     inkscape:current-layer="layer1"
     showgrid="false"
     inkscape:window-width="1600"
     inkscape:window-height="836"
     inkscape:window-x="0"
     inkscape:window-y="27"
     inkscape:window-maximized="1"
     fit-margin-top="0"
     fit-margin-left="0"
     fit-margin-right="0"
     fit-margin-bottom="0" />
  <metadata
     id="metadata5">
    <rdf:RDF>
      <cc:Work
         rdf:about="">
        <dc:format>image/svg+xml</dc:format>
        <dc:type
           rdf:resource="http://purl.org/dc/dcmitype/StillImage" />
        <dc:title></dc:title>
      </cc:Work>
    </rdf:RDF>
  </metadata>
  <g
     inkscape:label="Capa 1"
     inkscape:groupmode="layer"
     id="layer1"
     transform="translate(-55.091587,-79.748955)">
    <path
       style="fill:#ffffff;stroke-width:0.22303104"
       d="m 84.307349,153.24483 c -1.04268,-0.64104 -3.401222,-1.95083 -5.241235,-2.91064 -7.347261,-3.83257 -9.256758,-4.90344 -11.932161,-6.69171 -5.770613,-3.85715 -9.018397,-7.71901 -10.736038,-12.76593 -1.28326,-3.77058 -1.304882,-4.21736 -1.306323,-26.9905 -7.16e-4,-11.438706 0.07393,-20.803521 0.16596,-20.810702 0.092,-0.0072 3.22838,-0.04661 6.969721,-0.08761 8.859442,-0.09709 14.216292,-0.720532 21.249986,-2.473102 l 3.07295,-0.765681 3.0604,0.763571 c 7.1597,1.786351 12.339481,2.391512 21.237431,2.481197 3.74135,0.03771 6.87772,0.07444 6.96972,0.08162 0.092,0.0072 0.16668,9.321815 0.16596,20.699187 -8.4e-4,17.22939 -0.0572,21.05882 -0.33543,22.91643 -0.79179,5.28558 -2.6626,8.93531 -6.58135,12.83949 -3.20334,3.19144 -6.10944,5.05897 -15.859711,10.19181 -3.26643,1.71955 -6.50512,3.48861 -7.19708,3.93126 -0.69197,0.44264 -1.38163,0.79402 -1.53258,0.78083 -0.15095,-0.0132 -1.12755,-0.54847 -2.17022,-1.18953 z m 4.01456,-1.24133 c 0.30666,-0.21318 2.91613,-1.621 5.7988,-3.1285 6.748791,-3.52927 9.478741,-5.0875 11.820651,-6.74712 5.4345,-3.85123 8.53439,-7.97482 10.00116,-13.30394 l 0.58707,-2.13297 0.0661,-21.21557 0.0661,-21.215554 -7.20021,-0.126126 c -3.96012,-0.06937 -8.05331,-0.232842 -9.09598,-0.363275 -3.985691,-0.498587 -9.016021,-1.443084 -12.085101,-2.2691 l -1.71416,-0.461351 -2.3004,0.573837 c -7.496672,1.870052 -11.664521,2.379792 -20.652159,2.525822 l -7.200217,0.116988 0.06609,21.217159 0.06609,21.21717 0.587074,2.13297 c 1.05562,3.83529 2.982962,7.06972 5.940189,9.96867 3.025658,2.96603 5.800201,4.75691 14.432037,9.31542 3.411781,1.80177 6.814766,3.65319 7.562176,4.11426 1.48006,0.91303 1.64227,0.90212 3.25471,-0.21879 z m -5.557082,-1.73934 c -0.158711,-0.0529 -0.241733,-1.18479 -0.241733,-3.29595 v -3.21536 h 1.672735 c 2.41671,0 2.56486,0.19077 2.56486,3.30284 0,1.58934 -0.095,2.53243 -0.27879,2.76796 -0.19656,0.25187 -0.75021,0.38141 -1.87706,0.43917 -0.87906,0.045 -1.70705,0.0457 -1.840012,0.002 z m 2.211612,-3.15269 c 0,-1.73135 -0.15855,-2.45404 -0.47071,-2.14548 -0.18437,0.18226 0.0675,4.1396 0.26351,4.1396 0.11396,0 0.2072,-0.89735 0.2072,-1.99412 z m 4.40486,3.17792 c -0.23664,-0.0615 -0.3903,-0.31443 -0.3903,-0.64258 0,-0.49502 -0.0882,-0.54122 -1.03282,-0.54122 h -1.03282 l 0.12101,-0.72485 c 0.0666,-0.39867 0.44045,-1.60303 0.83088,-2.67637 l 0.70987,-1.95152 h 1.09406 1.09407 v 2.10021 c 0,1.40668 0.0863,2.12896 0.26124,2.18729 0.3666,0.12219 0.39403,1.02282 0.0353,1.16046 -0.16312,0.0626 -0.29659,0.31769 -0.29659,0.56687 0,0.24919 -0.0922,0.45306 -0.20479,0.45306 -0.11264,0 -0.33846,0.0383 -0.50182,0.085 -0.16336,0.0468 -0.47267,0.0394 -0.68733,-0.0164 z m -0.30667,-2.99592 c 0.20126,-1.00628 0.17714,-1.43841 -0.0663,-1.18765 -0.3093,0.31864 -0.55284,1.88462 -0.29308,1.88462 0.12098,0 0.2827,-0.31364 0.35937,-0.69697 z m -5.04607,-4.45842 c -0.54421,-0.40601 -0.61334,-0.60131 -0.61334,-1.73258 0,-1.40868 0.24738,-1.81024 1.11515,-1.81024 0.86459,0 1.11516,0.40091 1.11516,1.78425 0,0.68693 -0.12043,1.36941 -0.26764,1.5166 -0.20815,0.20817 -0.20815,0.26764 0,0.26764 0.14721,0 0.26764,0.10036 0.26764,0.22304 0,0.38114 -0.97345,0.23141 -1.61697,-0.24871 z m 0.69898,-1.81433 c -0.0269,-1.21662 -0.11455,-1.09979 -0.25104,0.33454 -0.0438,0.46001 6.8e-4,0.83637 0.0987,0.83637 0.098,0 0.16661,-0.52692 0.15238,-1.17091 z m -5.772939,1.18543 c 0,-0.36002 -0.08567,-0.88693 -0.190372,-1.17092 -0.488735,-1.32557 -0.503807,-1.743 -0.06288,-1.743 0.242188,0 0.495479,0.21538 0.590142,0.50181 l 0.165842,0.50182 0.09871,-0.50182 c 0.06154,-0.31301 0.260708,-0.50181 0.529264,-0.50181 0.518171,0 0.526618,0.11771 0.096,1.33818 -0.183999,0.52151 -0.334542,1.23668 -0.334542,1.58926 0,0.49236 -0.103464,0.64105 -0.446065,0.64105 -0.344742,0 -0.446065,-0.14869 -0.446065,-0.65457 z m 2.676373,-1.12967 v -1.78425 h 0.780607 c 0.859069,0 1.074919,0.48011 0.390304,0.86815 -0.365732,0.20731 -0.362225,0.24311 0.05572,0.56867 0.421785,0.32851 0.424825,0.36393 0.05571,0.6508 -0.478418,0.37187 -0.508629,0.81178 -0.05571,0.81178 0.184005,0 0.334545,0.15055 0.334545,0.33455 0,0.23365 -0.23541,0.33454 -0.780602,0.33454 H 81.63094 Z m 4.609306,1.63555 c -0.0818,-0.0818 -0.14868,-0.88468 -0.14868,-1.78424 0,-1.47467 0.0429,-1.63556 0.43628,-1.63556 0.38584,0 0.4452,0.18699 0.51327,1.61697 l 0.077,1.61698 0.0443,-1.63249 c 0.0419,-1.54306 0.0711,-1.62858 0.53409,-1.56122 0.42629,0.062 0.50077,0.23535 0.57448,1.33679 0.10925,1.63264 -0.18309,2.19146 -1.14645,2.19146 -0.40457,0 -0.80249,-0.0669 -0.88427,-0.14869 z m 2.30466,-1.65107 c 0,-1.73884 0.017,-1.79734 0.50182,-1.72849 0.46715,0.0663 0.50448,0.19069 0.54038,1.79976 0.0378,1.69099 0.0268,1.72849 -0.50182,1.72849 -0.52718,0 -0.54038,-0.044 -0.54038,-1.79976 z m 1.33819,0.0155 v -1.78425 h 0.76467 c 0.8462,0 1.55968,0.54837 1.36694,1.05064 -0.0684,0.1782 -0.12433,0.4596 -0.12433,0.6253 0,0.1657 -0.20074,0.36498 -0.44607,0.44285 -0.31247,0.0992 -0.44606,0.33745 -0.44606,0.79564 0,0.54898 -0.0896,0.65406 -0.55758,0.65406 -0.54828,0 -0.55757,-0.0298 -0.55757,-1.78425 z m 1.26286,-0.94788 c -0.0619,-0.15334 -0.11249,-0.0279 -0.11249,0.27879 0,0.30666 0.0507,0.43212 0.11249,0.27879 0.0619,-0.15334 0.0619,-0.40425 0,-0.55758 z m 1.29412,2.49636 c -0.26752,-0.43285 -0.12576,-2.9572 0.17723,-3.15593 0.15219,-0.0998 0.57557,-0.15534 0.94086,-0.12338 0.5989,0.0524 0.68063,0.15533 0.83189,1.04787 0.0923,0.54438 0.0887,1.29711 -0.008,1.67274 -0.15002,0.58315 -0.29301,0.69289 -0.97844,0.75094 -0.44276,0.0375 -0.87487,-0.0487 -0.96357,-0.19224 z m 0.95012,-2.0463 c -0.0496,-0.40087 -0.0913,-0.12667 -0.0925,0.60933 -0.002,0.73601 0.0394,1.06399 0.0902,0.72885 0.0509,-0.33514 0.0519,-0.93732 0.002,-1.33818 z m 1.54826,2.13338 c -0.0818,-0.0818 -0.14869,-0.3936 -0.14869,-0.69295 0,-0.39216 0.0935,-0.50838 0.33455,-0.41588 0.43719,0.16777 0.43002,-0.16983 -0.0114,-0.53617 -0.21058,-0.17476 -0.31966,-0.55633 -0.27879,-0.9752 0.0627,-0.64288 0.12575,-0.68808 0.95928,-0.68808 0.75536,0 0.90304,0.077 0.96339,0.50182 0.0542,0.38171 -0.0392,0.50182 -0.3903,0.50182 -0.25387,0 -0.46157,-0.11709 -0.46157,-0.26021 0,-0.14311 -0.0696,-0.1906 -0.15467,-0.10553 -0.0851,0.0851 0.16584,0.44742 0.55757,0.80521 0.74332,0.67892 0.8993,1.29154 0.44461,1.74623 -0.28453,0.28453 -1.56448,0.36846 -1.81398,0.11895 z m 0.89115,-1.02222 c -0.0619,-0.15333 -0.1125,-0.0279 -0.1125,0.27879 0,0.30666 0.0506,0.43212 0.1125,0.27878 0.0619,-0.15333 0.0619,-0.40424 0,-0.55757 z m -28.249621,-5.08616 v -1.79647 l 1.059396,0.0679 1.059397,0.0679 0.06676,1.54125 c 0.07528,1.73881 -0.04333,1.90699 -1.349187,1.91231 l -0.836368,0.003 z m 1.2752,-0.59805 c -0.05125,-0.33902 -0.09458,-0.11458 -0.09626,0.49876 -0.0017,0.61333 0.04029,0.89071 0.09321,0.6164 0.05294,-0.27432 0.05429,-0.77614 0.0034,-1.11516 z m 1.401172,0.61027 c 0,-1.63556 0.03717,-1.78425 0.446065,-1.78425 0.408891,0 0.446056,0.14869 0.446056,1.78425 0,1.63557 -0.03717,1.78425 -0.446056,1.78425 -0.408891,0 -0.446065,-0.14868 -0.446065,-1.78425 z m 1.463769,0.72485 c -0.08143,-0.58267 -0.204382,-1.38558 -0.273175,-1.78424 -0.114102,-0.66122 -0.07511,-0.72486 0.444497,-0.72486 0.508005,0 0.578804,0.10246 0.654948,0.94788 l 0.08537,0.94789 0.03894,-0.94789 c 0.0354,-0.86093 0.09191,-0.94788 0.616147,-0.94788 0.633588,0 0.615625,-0.26154 0.183823,2.67637 -0.122574,0.83401 -0.179043,0.89213 -0.8668,0.89213 -0.70818,0 -0.741216,-0.0396 -0.883776,-1.0594 z m 2.327761,-0.72485 c 0,-1.63556 0.03717,-1.78425 0.446057,-1.78425 0.408891,0 0.446065,0.14869 0.446065,1.78425 0,1.63557 -0.03717,1.78425 -0.446065,1.78425 -0.408882,0 -0.446057,-0.14868 -0.446057,-1.78425 z m 1.616976,1.64173 c -0.153333,-0.0647 -0.278789,-0.36023 -0.278789,-0.65667 0,-0.39031 0.123054,-0.53899 0.446056,-0.53899 0.269433,0 0.453036,0.15455 0.463674,0.3903 0.01079,0.23902 0.0617,0.28086 0.13129,0.10795 0.06255,-0.15529 -0.196307,-0.57193 -0.575188,-0.92585 -0.689122,-0.64374 -0.825773,-1.03522 -0.51818,-1.48444 0.492478,-0.71921 2.059627,-0.45648 2.059627,0.34529 0,0.56885 -0.815194,0.62081 -0.961412,0.0613 -0.09515,-0.3641 -0.103742,-0.36445 -0.127876,-0.005 -0.01425,0.21183 0.23021,0.55295 0.543198,0.75802 0.46429,0.30422 0.556677,0.52074 0.501818,1.17606 -0.06002,0.71725 -0.138834,0.80782 -0.736335,0.84652 -0.368008,0.0239 -0.79455,-0.01 -0.947883,-0.0744 z m 2.157384,-0.91688 c -0.0094,-0.58267 -0.03456,-1.38559 -0.05572,-1.78426 -0.03271,-0.61447 0.03785,-0.72487 0.463227,-0.72486 0.478586,2e-5 0.501818,0.0826 0.501818,1.78427 0,1.63557 -0.03717,1.78425 -0.446057,1.78425 -0.381048,0 -0.448568,-0.15441 -0.463235,-1.0594 z m 1.594781,0.85123 c -0.36451,-0.23069 -0.456265,-2.79594 -0.111515,-3.11747 0.4162,-0.38818 1.132549,-0.46038 1.548663,-0.15611 0.353366,0.25839 0.417059,0.55106 0.371422,1.7067 -0.03026,0.76715 -0.107957,1.48037 -0.172578,1.58493 -0.154445,0.24991 -1.231367,0.23801 -1.635992,-0.018 z m 0.814333,-2.29694 c -0.04965,-0.40086 -0.09128,-0.12666 -0.09253,0.60935 -0.0017,0.736 0.03937,1.06398 0.09025,0.72884 0.05092,-0.33513 0.05193,-0.93732 0.0025,-1.33819 z m 1.399579,0.72086 c 0,-1.6097 0.04181,-1.78425 0.427477,-1.78425 0.263347,0 0.513485,0.2355 0.651484,0.61334 l 0.224015,0.61333 0.0176,-0.61333 c 0.0131,-0.45878 0.13001,-0.61334 0.46367,-0.61334 0.40921,0 0.44606,0.14869 0.44606,1.79976 0,1.72934 -0.0193,1.79697 -0.49268,1.72849 -0.30253,-0.0438 -0.552175,-0.28645 -0.646863,-0.62884 l -0.154176,-0.55758 -0.02225,0.61333 c -0.01661,0.45725 -0.135758,0.61334 -0.468294,0.61334 -0.408891,0 -0.446065,-0.14868 -0.446065,-1.78425 z m 3.204426,1.17091 c 0.0646,-0.33733 0.18234,-1.14024 0.26168,-1.78425 0.14141,-1.14782 0.15881,-1.17091 0.883,-1.17091 0.72418,0 0.74159,0.0231 0.88299,1.17091 0.0793,0.64401 0.1971,1.44692 0.26169,1.78425 0.0969,0.50622 0.0384,0.61334 -0.33527,0.61334 -0.24899,0 -0.555,-0.17563 -0.68003,-0.39031 -0.2165,-0.37172 -0.22766,-0.37172 -0.23411,0 -0.005,0.2691 -0.18545,0.39031 -0.58209,0.39031 -0.50737,0 -0.56143,-0.0724 -0.45786,-0.61334 z m 1.18087,-1.4497 c -0.0619,-0.15333 -0.11249,-0.0279 -0.11249,0.27879 0,0.30667 0.0506,0.43212 0.11249,0.27879 0.0619,-0.15333 0.0619,-0.40424 0,-0.55758 z m 1.41351,0.26596 v -1.79707 l 0.94789,0.0686 0.94788,0.0686 0.0564,1.72849 c 0.0516,1.58207 0.0196,1.7285 -0.37684,1.7285 -0.33637,0 -0.45278,-0.18698 -0.5207,-0.83637 l -0.0875,-0.83637 -0.0375,0.83637 c -0.0303,0.67518 -0.12346,0.83637 -0.48355,0.83637 -0.40916,0 -0.44607,-0.14869 -0.44607,-1.79708 z m 1.04448,-0.92111 c -0.0712,-0.17792 -0.12404,-0.12508 -0.13475,0.13475 -0.01,0.23511 0.043,0.36683 0.11714,0.29272 0.0741,-0.0741 0.082,-0.26647 0.0176,-0.42747 z m 1.40887,0.93394 v -1.78425 h 0.65427 c 0.54255,0 0.67015,0.10475 0.74719,0.61334 l 0.0929,0.61333 0.0334,-0.61333 c 0.0287,-0.52537 0.12939,-0.61334 0.70252,-0.61334 h 0.66909 v 1.80061 c 0,1.59712 -0.0441,1.79141 -0.3903,1.71935 -0.2554,-0.0532 -0.37115,-0.25603 -0.33489,-0.58689 0.0319,-0.29083 -0.0392,-0.44717 -0.16727,-0.368 -0.12248,0.0757 -0.2227,0.33244 -0.2227,0.57053 0,0.74586 -0.63339,0.49281 -0.73078,-0.29195 l -0.09,-0.72486 -0.0357,0.72486 c -0.0278,0.56426 -0.1345,0.72485 -0.48175,0.72485 -0.40889,0 -0.44607,-0.14868 -0.44606,-1.78425 z m 3.21434,0.89212 c 0.0722,-0.49066 0.19012,-1.29357 0.26224,-1.78425 0.12256,-0.8339 0.17911,-0.89212 0.86642,-0.89212 0.72865,0 0.7367,0.0116 0.88905,1.28243 0.0846,0.70534 0.20737,1.50825 0.27291,1.78425 0.0941,0.39649 0.0228,0.50182 -0.34,0.50182 -0.25254,0 -0.54955,-0.16153 -0.66004,-0.35896 -0.18463,-0.32992 -0.21202,-0.32992 -0.33863,0 -0.0758,0.19743 -0.35044,0.35896 -0.6104,0.35896 -0.42461,0 -0.45934,-0.0907 -0.34155,-0.89213 z m 1.17095,-1.17091 c -0.0619,-0.15333 -0.1125,-0.0279 -0.1125,0.27879 0,0.30667 0.0507,0.43212 0.1125,0.27879 0.0619,-0.15333 0.0619,-0.40424 0,-0.55758 z m 1.41351,0.27879 c 0,-1.73811 0.0139,-1.78425 0.53899,-1.78425 0.385,0 0.60299,0.17523 0.763,0.61334 l 0.22401,0.61333 0.0176,-0.61333 c 0.0152,-0.52888 0.10974,-0.61334 0.68671,-0.61334 h 0.66909 v 1.78425 c 0,1.6161 -0.0407,1.78425 -0.43192,1.78425 -0.32017,0 -0.45521,-0.18756 -0.52189,-0.72485 l -0.0899,-0.72486 -0.0357,0.72486 c -0.0221,0.44903 -0.15239,0.72485 -0.34237,0.72485 -0.16866,0 -0.38701,-0.32619 -0.48519,-0.72485 l -0.17854,-0.72486 -0.0865,0.72486 c -0.0527,0.44127 -0.21187,0.72485 -0.40693,0.72485 -0.25183,0 -0.32041,-0.38191 -0.32041,-1.78425 z m 3.34546,0 v -1.78425 h 0.78061 c 0.545191,0 0.780611,0.10089 0.780611,0.33455 0,0.184 -0.15055,0.33454 -0.33455,0.33454 -0.184,0 -0.334541,0.15056 -0.334541,0.33456 0,0.18399 0.150541,0.33454 0.334541,0.33454 0.184,0 0.33455,0.15055 0.33455,0.33455 0,0.184 -0.15055,0.33454 -0.33455,0.33454 -0.184,0 -0.334541,0.15055 -0.334541,0.33455 0,0.184 0.150541,0.33454 0.334541,0.33454 0.18587,0 0.33455,0.19826 0.33455,0.44607 0,0.36109 -0.14868,0.44606 -0.780611,0.44606 h -0.78061 z m 1.784251,0 c 0,-1.64499 0.0354,-1.78425 0.45325,-1.78425 0.26158,0 0.53854,0.21221 0.65496,0.50182 l 0.20171,0.50183 0.0142,-0.50183 c 0.01,-0.34842 0.15049,-0.50182 0.4602,-0.50182 0.40889,0 0.44606,0.14869 0.44606,1.78425 0,1.6097 -0.0418,1.78425 -0.42747,1.78425 -0.26335,0 -0.51349,-0.23549 -0.65149,-0.61334 l -0.22401,-0.61333 -0.0176,0.61333 c -0.0131,0.45878 -0.13002,0.61334 -0.46367,0.61334 -0.40889,0 -0.44607,-0.14868 -0.44607,-1.78425 z m 3.04809,1.63557 c -0.0818,-0.0818 -0.14869,-0.73415 -0.14869,-1.44971 0,-0.71865 -0.0998,-1.30102 -0.22303,-1.30102 -0.12266,0 -0.22302,-0.15054 -0.22302,-0.33454 0,-0.24781 0.2602,-0.33455 1.00363,-0.33455 0.74344,0 1.00365,0.0867 1.00365,0.33455 0,0.184 -0.10037,0.33454 -0.22304,0.33454 -0.12581,0 -0.22303,0.63192 -0.22303,1.4497 0,1.25709 -0.0544,1.44971 -0.40889,1.44971 -0.22489,0 -0.4758,-0.0669 -0.55758,-0.14868 z m 1.9032,-0.11895 c -0.1472,-0.14721 -0.26764,-0.84744 -0.26764,-1.55608 0,-1.1077 0.0739,-1.3368 0.52616,-1.63319 0.53125,-0.34809 1.21687,-0.25568 1.53347,0.20668 0.26766,0.3909 0.19283,2.6928 -0.097,2.98259 -0.14719,0.14719 -0.52858,0.26763 -0.84751,0.26763 -0.31894,0 -0.70031,-0.12044 -0.84752,-0.26763 z m 1.06714,-1.57238 c -0.002,-0.644 -0.0802,-1.05014 -0.17401,-0.90252 -0.0938,0.14762 -0.15165,0.64943 -0.1285,1.11516 0.0482,0.96997 0.0458,0.95828 0.19441,0.95828 0.0614,0 0.10998,-0.52691 0.1081,-1.17092 z m -25.645162,-2.63198 c 0,-0.50346 1.686654,-1.78106 2.534651,-1.91993 1.08024,-0.17691 0.68612,-0.41762 -0.973428,-0.59452 -0.674674,-0.0719 -1.101216,-0.0766 -0.947883,-0.0105 0.99143,0.42746 -0.621618,1.64399 -2.174555,1.64 -2.372766,-0.006 -1.937423,-0.90396 0.798251,-1.64633 l 0.909764,-0.24687 -1.083109,-0.48951 c -0.595714,-0.26924 -1.021557,-0.38991 -0.946323,-0.26817 0.222269,0.35964 -0.336861,0.84864 -1.143363,0.99994 -0.540408,0.10138 -1.037101,0.003 -1.77213,-0.35353 -1.441203,-0.69768 -1.183243,-1.00221 0.848971,-1.00221 0.93351,0 1.626863,-0.0505 1.540798,-0.11213 -0.08607,-0.0617 -0.547936,-0.46313 -1.026361,-0.89213 -0.478418,-0.42899 -0.798942,-0.65495 -0.71227,-0.50214 0.226013,0.39848 -0.816795,0.8158 -1.567654,0.62735 -0.667888,-0.16764 -2.166892,-1.60631 -1.983255,-1.90345 0.13295,-0.21511 1.763506,0.12019 2.596056,0.53385 l 0.585455,0.29088 -0.577169,-0.92704 c -0.492065,-0.79036 -0.668874,-0.91358 -1.1992,-0.83574 -0.344995,0.0507 -0.868915,-0.0705 -1.176331,-0.27189 -0.619047,-0.40562 -1.541296,-2.03927 -1.337445,-2.36911 0.157169,-0.2543 1.045193,0.26283 2.047598,1.19237 l 0.712598,0.66081 0.143799,-0.64522 c 0.310029,-1.3911 0.584511,-2.0572 1.004251,-2.43706 0.429526,-0.38871 0.437669,-0.37456 0.437669,0.7608 0,1.34128 -0.527216,2.81779 -0.91956,2.57531 -0.298969,-0.18478 0.312011,0.90182 0.958378,1.70442 l 0.43718,0.54284 -0.259494,-0.52732 c -0.305781,-0.62137 -0.118199,-2.22777 0.332047,-2.84351 0.290076,-0.39671 0.317388,-0.38284 0.489519,0.24867 0.277727,1.01894 0.206093,3.0161 -0.115316,3.21475 -0.382582,0.23644 1.066309,1.49259 2.362491,2.04819 1.325331,0.56811 1.491207,0.53595 0.976163,-0.18926 -0.458692,-0.64585 -0.864666,-2.51151 -0.545246,-2.50568 0.639075,0.0117 1.859611,1.87322 1.859611,2.83625 0,0.5445 0.09871,0.72945 0.390303,0.73129 0.21467,0.002 0.79176,0.0608 1.28243,0.13209 l 0.89212,0.12965 -0.7806,-0.41089 c -0.77111,-0.40588 -2.013671,-2.3746 -1.697994,-2.69028 0.07831,-0.0783 0.517484,0.0486 0.975944,0.28208 1.24056,0.63171 1.2486,0.63403 1.03188,0.29776 -0.33534,-0.52034 -0.0859,-15.53187 0.27511,-16.55502 0.16895,-0.47886 0.30718,-1.66095 0.30718,-2.62687 v -1.7562 l -0.72485,-0.0222 c -0.39867,-0.0122 -0.97576,-0.11124 -1.28243,-0.22002 -0.476622,-0.16906 -0.44829,-0.18203 0.19515,-0.0893 0.414,0.0597 1.33815,0.1085 2.05366,0.1085 h 1.30093 l 0.0652,1.72848 c 0.0512,1.3588 0.13668,1.7285 0.39967,1.7285 0.26301,0 0.34849,-0.3697 0.39969,-1.7285 0.0609,-1.61459 0.0976,-1.72845 0.55758,-1.7279 0.4685,4.4e-4 0.49361,0.0954 0.5164,1.95151 0.0148,1.20941 0.1632,2.32188 0.3903,2.92687 0.31362,0.83546 0.36635,2.07407 0.36635,8.60528 0,4.19615 -0.056,7.68535 -0.12443,7.75378 -0.0684,0.0684 -0.30349,0.0776 -0.52233,0.0204 -0.36938,-0.0966 -0.40815,-0.69024 -0.54094,-8.28364 -0.0787,-4.49878 -0.2066,-8.40542 -0.28429,-8.68142 -0.11134,-0.39558 -0.30343,-0.50182 -0.90723,-0.50182 -1.35407,0 -1.41231,0.39439 -1.41231,9.56458 0,6.20548 -0.063,8.04313 -0.27879,8.1302 -0.15333,0.0619 0.62449,0.11893 1.72849,0.1268 1.36766,0.01 2.18496,-0.0884 2.56486,-0.30811 1.79131,-1.03585 1.96807,-1.01528 1.57261,0.18298 -0.31402,0.95146 -1.247,1.92131 -1.88181,1.95615 -0.27685,0.0152 -0.33333,0.062 -0.13687,0.11325 0.18401,0.0481 0.77401,0.0106 1.31112,-0.0832 0.90872,-0.15871 0.98067,-0.22263 1.03553,-0.92001 0.06,-0.76325 1.10623,-2.48267 1.61216,-2.64961 0.73881,-0.24378 0.0335,2.57701 -0.75971,3.03806 -0.73086,0.42483 -0.12275,0.26735 1.16257,-0.30109 1.26885,-0.56115 2.50298,-1.45437 2.85929,-2.06947 0.1258,-0.21716 0.11425,-0.28725 -0.0324,-0.19662 -0.31908,0.1972 -0.49816,-0.38335 -0.49459,-1.60334 0.003,-1.17953 0.19047,-2.0448 0.44197,-2.0448 0.34576,0 0.71405,1.35076 0.63597,2.33251 -0.0443,0.55712 -0.0583,1.01296 -0.0313,1.01296 0.0271,0 0.30385,-0.37458 0.61494,-0.83238 0.5682,-0.83619 0.72973,-1.30265 0.3752,-1.08354 -0.29035,0.17945 -0.73041,-0.96098 -0.86258,-2.23541 -0.0732,-0.70558 -0.0258,-1.19757 0.12427,-1.29031 0.31358,-0.1938 1.14959,1.43311 1.15855,2.25456 0.006,0.54654 0.0356,0.57275 0.24331,0.21547 0.45045,-0.77459 0.63277,-1.71205 0.33298,-1.71205 -0.37864,0 -1.17797,-1.47821 -1.37623,-2.54508 -0.14284,-0.76861 -0.11641,-0.8548 0.22225,-0.72484 0.21139,0.0811 0.43095,0.14749 0.48789,0.14749 0.19625,0 1.19381,2.34276 1.19599,2.80872 8.4e-4,0.25681 -0.19391,1.03685 -0.43358,1.73345 l -0.43574,1.26653 0.71453,-0.75348 c 0.393,-0.41441 1.040731,-0.92103 1.439391,-1.12583 0.66901,-0.34367 0.72486,-0.34418 0.72486,-0.007 0,0.61994 -0.91917,2.03985 -1.488361,2.29919 -0.65861,0.30009 -1.34774,0.31872 -1.44822,0.0392 -0.0409,-0.11375 -0.39176,0.28575 -0.77972,0.88778 l -0.70537,1.09461 0.62619,-0.32381 c 0.83063,-0.42954 2.43232,-0.78046 2.567081,-0.56243 0.16427,0.2658 -0.741061,1.30998 -1.456601,1.68 -0.79598,0.41162 -1.43015,0.42066 -1.82479,0.026 -0.25672,-0.25672 -0.43299,-0.19596 -1.13225,0.39031 l -0.82819,0.69436 1.39511,-0.062 c 1.76164,-0.0782 2.26322,0.18636 1.54092,0.8128 -0.74517,0.6463 -2.06924,0.81133 -2.93155,0.36541 -0.43673,-0.22584 -0.66193,-0.48429 -0.58858,-0.67545 0.0832,-0.21687 -0.0951,-0.17919 -0.59525,0.12576 -0.39274,0.23946 -0.91481,0.44237 -1.16014,0.4509 -0.24534,0.009 0.0829,0.15791 0.72927,0.33195 0.64644,0.17403 1.49356,0.48099 1.88248,0.68211 0.67037,0.34666 0.68532,0.38163 0.28749,0.67253 -0.23081,0.16877 -0.9007,0.30685 -1.48866,0.30685 -0.87522,0 -1.20103,-0.12068 -1.79737,-0.66574 -0.61544,-0.56253 -0.6765,-0.70227 -0.39383,-0.90132 0.24346,-0.17144 0.0309,-0.19517 -0.78061,-0.0871 -1.31133,0.17458 -2.10706,0.52158 -1.22053,0.53224 0.60489,0.008 1.29991,0.40643 2.27993,1.30939 0.77606,0.71502 0.77332,0.92771 -0.012,0.92771 -1.0442,0 -2.87499,-1.0447 -3.13428,-1.7885 -0.21455,-0.61545 -0.2656,-0.63794 -0.92575,-0.40781 -0.69272,0.24149 -1.9455,0.16839 -2.76703,-0.16145 -0.30703,-0.12326 -0.37991,-0.0954 -0.25957,0.0994 0.26755,0.43289 -0.43616,1.27612 -1.49119,1.78685 -1.03634,0.50169 -2.171442,0.62567 -2.171442,0.23716 z m 6.941841,-2.44197 c 0.30024,0 0.41819,-0.1614 0.41819,-0.57224 0,-0.31474 0.0905,-0.74129 0.20116,-0.94788 0.182,-0.33986 4.5e-4,-0.37565 -1.90566,-0.37565 h -2.10683 l 0.14459,0.55758 c 0.0795,0.30667 0.16871,0.70812 0.19819,0.89212 0.0631,0.3943 1.08346,0.67051 1.99097,0.53899 0.35266,-0.0511 0.82939,-0.0929 1.05939,-0.0929 z m -2.98164,-19.11025 c 0.15257,-0.26794 0.27337,-0.56903 0.26846,-0.6691 -0.005,-0.10006 -0.18054,0.11916 -0.3903,0.48716 -0.31684,0.55587 -0.3854,1.3296 -0.40519,4.57214 l -0.0239,3.90304 0.13674,-3.90304 c 0.0862,-2.45997 0.23928,-4.08316 0.41411,-4.3902 z m -20.719485,20.43498 c -0.199543,-0.11167 -1.235118,-0.27008 -2.301276,-0.35204 -1.831835,-0.1408 -1.931051,-0.17472 -1.803445,-0.61661 0.371776,-1.2874 1.683342,-8.11076 1.683342,-8.75751 0,-0.51162 -0.104139,-0.74285 -0.334551,-0.74285 -0.184,0 -0.334542,-0.11439 -0.334542,-0.2542 0,-0.1398 -0.156014,-0.36828 -0.34669,-0.5077 -0.475795,-0.34791 -0.178309,-1.02234 0.450954,-1.02234 0.458895,0 0.595622,-0.32494 1.571962,-3.73577 0.588136,-2.05468 1.243751,-4.58887 1.456908,-5.63153 0.395985,-1.937 2.263242,-8.75523 2.705176,-9.87787 0.204938,-0.5206 0.179684,-0.66975 -0.154825,-0.91435 -0.368943,-0.26978 -0.341547,-0.32128 0.35608,-0.669301 0.70985,-0.354124 0.772557,-0.354082 1.031975,6.91e-4 0.222169,0.30383 0.29516,0.31649 0.373074,0.06474 0.28045,-0.906231 1.480198,-5.433758 1.812178,-6.838671 0.387985,-1.641912 0.646131,-2.0607 1.032245,-1.674592 0.136339,0.136342 -0.02537,0.973487 -0.446503,2.311241 -1.253908,3.983271 -1.765318,5.89319 -1.889957,7.058312 -0.156005,1.45823 -2.570801,10.30807 -2.936794,10.76285 -0.458448,0.56968 -0.533875,1.30108 -0.165902,1.60877 0.188763,0.15785 1.156952,0.48927 2.151526,0.73649 l 1.808317,0.4495 0.111514,1.39055 c 0.129992,1.62087 0.179911,1.59764 -2.084578,0.96972 -1.297202,-0.3597 -1.535277,-0.37403 -1.640924,-0.0987 -0.06794,0.17713 -0.249573,0.2737 -0.403546,0.21462 -0.183595,-0.0705 -0.328886,0.19848 -0.422083,0.78132 -0.16779,1.04927 -0.01416,1.38716 0.562055,1.23646 0.246732,-0.0645 0.364054,-0.0177 0.283232,0.11309 -0.07587,0.12279 -0.374077,0.1781 -0.662653,0.12294 -0.288576,-0.0551 -0.471615,-0.0144 -0.406758,0.0905 0.06482,0.10494 0.203927,0.19081 0.309034,0.19081 0.278545,0 2.237085,1.86515 2.229372,2.12306 -0.0034,0.12032 -0.315441,0.55856 -0.692982,0.97387 -0.74903,0.82395 -0.680591,0.85431 -1.576632,-0.69935 -0.265294,-0.46 -0.61184,-0.83637 -0.770104,-0.83637 -0.476074,0 -0.90587,1.15426 -0.800636,2.15019 0.06305,0.59699 -0.0231,1.10957 -0.243748,1.44971 -0.475214,0.73258 -0.805786,3.44011 -0.539961,4.42255 0.117153,0.43301 0.515954,1.52011 0.886212,2.41581 0.370258,0.89569 0.635746,1.66597 0.589965,1.71176 -0.04577,0.0458 -0.246496,-0.008 -0.446031,-0.1198 z m -0.638106,-1.15746 c -5.31e-4,-0.0307 -0.249328,-0.7583 -0.552875,-1.61697 -0.303539,-0.85868 -0.554014,-1.88741 -0.556602,-2.28607 -0.0087,-1.34003 -0.565764,-0.82449 -0.843499,0.7806 -0.143269,0.82801 -0.325447,1.82492 -0.404828,2.21537 -0.140343,0.69024 -0.120483,0.71237 0.716914,0.79887 1.517431,0.15676 1.641885,0.16497 1.64089,0.1082 z m -0.803493,-6.09584 c 0.2031,-0.52929 0.1629,-1.43146 -0.06381,-1.43146 -0.257758,0 -0.469929,0.56207 -0.469929,1.24492 0,0.60793 0.328018,0.72258 0.533715,0.18654 z m 3.784525,-20.05455 c 0.07064,-0.184 0.03119,-0.33454 -0.08766,-0.33454 -0.118814,0 -0.216031,0.15054 -0.216031,0.33454 0,0.184 0.03945,0.33455 0.08766,0.33455 0.04822,0 0.145426,-0.15055 0.216031,-0.33455 z m 0.290085,-1.72849 c -0.06187,-0.15333 -0.112492,-0.0279 -0.112492,0.27879 0,0.30667 0.05058,0.43212 0.112492,0.27879 0.06187,-0.15333 0.06187,-0.40425 0,-0.55758 z m 0.517969,-1.23983 c -0.0034,-0.32502 -0.0333,-0.33091 -0.219615,-0.0426 -0.28227,0.43678 -0.28227,0.73203 0,0.55758 0.122667,-0.0758 0.221494,-0.30756 0.219615,-0.51498 z m 40.250316,28.13207 c 0.37888,-1.50958 0.49766,-2.54311 0.3059,-2.66162 -0.12255,-0.0758 -0.11293,-0.23917 0.0238,-0.40388 0.12629,-0.15216 0.35346,-1.25723 0.50483,-2.4557 0.26662,-2.11094 0.25947,-2.20642 -0.22868,-3.0546 l -0.50389,-0.87554 0.77527,-0.73117 c 0.82843,-0.78132 1.10799,-1.49237 0.99044,-2.51925 -0.0582,-0.50829 -0.20646,-0.66229 -0.72387,-0.7518 -0.35788,-0.0619 -0.68979,-0.23013 -0.73759,-0.37381 -0.0551,-0.1658 0.0797,-0.21767 0.3692,-0.14197 0.54734,0.14313 0.8698,-0.47991 0.52845,-1.02105 -0.33556,-0.53198 -0.80591,-0.43739 -0.98254,0.19759 -0.13406,0.48196 -0.15811,0.49421 -0.17733,0.0903 -0.0122,-0.25699 0.1785,-0.6489 0.42383,-0.87093 0.57036,-0.51616 0.56238,-0.74399 -0.10153,-2.89941 -0.30228,-0.98133 -0.76535,-2.61225 -1.02907,-3.62425 -0.30673,-1.1771 -0.58967,-1.84001 -0.78534,-1.84001 -0.16823,0 -0.36697,-0.276 -0.44164,-0.61333 -0.0747,-0.33734 -0.51975,-1.98985 -0.98905,-3.67224 -0.46929,-1.68239 -0.80459,-3.245032 -0.7451,-3.472525 0.13427,-0.513461 -1.61741,-6.768696 -1.95367,-6.976514 -0.15565,-0.0962 -0.0608,-0.280288 0.26023,-0.505157 0.27782,-0.194591 0.58219,-0.306169 0.67639,-0.24795 0.0942,0.05822 0.23432,0.0039 0.31137,-0.120816 0.077,-0.124668 0.3139,-0.22667 0.52634,-0.22667 0.28927,0 0.48521,0.378048 0.78026,1.50546 0.21669,0.828003 0.78294,2.76001 1.25833,4.293348 0.47539,1.533338 1.43034,4.694804 2.1221,7.025484 0.69176,2.33067 1.6502,5.55164 2.12986,7.15771 1.45033,4.85625 1.574,5.6811 1.1607,7.7417 -0.3228,1.6094 -0.3225,1.84934 0.003,2.79778 0.45923,1.33647 1.60889,8.12677 1.44725,8.54799 -0.11953,0.31148 -3.81748,1.29915 -4.86418,1.29915 -0.41337,0 -0.46222,-0.0871 -0.33441,-0.59634 z m -2.19688,-32.574884 c -0.22671,-0.226715 -0.41377,0.114614 -0.22776,0.415592 0.14051,0.227362 0.19305,0.227538 0.26859,9.27e-4 0.0517,-0.154958 0.0333,-0.342379 -0.0408,-0.41649 z m -0.77258,-2.659654 c -0.24554,-0.839753 -0.55761,-1.953371 -0.6935,-2.474706 -0.13589,-0.521335 -0.33835,-0.947882 -0.44991,-0.947882 -0.12116,0 -0.12215,0.246975 -0.003,0.613335 0.1102,0.337335 0.46482,1.499684 0.78804,2.582999 0.32323,1.083314 0.63641,1.920931 0.69597,1.861371 0.0596,-0.05956 -0.0926,-0.795363 -0.33813,-1.635117 z M 78.85573,129.20621 c -0.391542,-0.55902 -0.480078,-2.74133 -0.120238,-2.96373 0.325919,-0.20142 1.100549,1.63517 1.106332,2.62305 0.0059,0.97164 -0.437011,1.1246 -0.986094,0.34068 z m 14.831049,-0.22917 c 0.0148,-0.88257 0.67149,-2.66302 1.02573,-2.78087 0.32239,-0.10726 0.61751,1.51208 0.40347,2.21388 -0.40245,1.31963 -1.44874,1.73471 -1.4292,0.56699 z m -6.94468,-0.037 c -0.0511,-0.051 -0.0652,-3.56373 -0.0315,-7.80608 0.0527,-6.62077 0.10802,-7.71336 0.39031,-7.71336 0.28355,0 0.32887,1.07584 0.32887,7.80609 0,6.35638 -0.0552,7.80608 -0.29737,7.80608 -0.16356,0 -0.3392,-0.0417 -0.39031,-0.0927 z m -11.9993,-4.61281 c -0.136853,-0.39257 -0.256737,-0.9246 -0.266423,-1.1823 -0.0097,-0.2577 -0.0682,-0.34308 -0.130101,-0.18975 -0.17675,0.43801 -0.846155,0.32691 -1.343741,-0.22303 -0.731076,-0.808 -1.306154,-3.06668 -0.78081,-3.06668 0.213419,0 1.108659,1.14445 1.649573,2.10875 0.314286,0.56029 0.385338,0.60108 0.405982,0.23308 l 0.02504,-0.44607 0.191679,0.44607 c 0.161863,0.37668 0.194115,0.33597 0.207357,-0.26168 0.01517,-0.68462 0.936739,-2.08015 1.373683,-2.08015 0.607566,0 -0.06339,2.2739 -0.925308,3.13579 -0.452539,0.45254 -0.473022,0.56901 -0.222101,1.26291 0.152026,0.42043 0.228617,0.8122 0.170209,0.87061 -0.05842,0.0584 -0.218173,-0.21499 -0.355026,-0.60755 z m 24.61563,-2.27078 c -0.0809,-0.64764 -0.10317,-1.47564 -0.0495,-1.84001 0.0547,-0.37129 0.11458,-0.0743 0.13615,0.6757 l 0.0385,1.33818 0.34374,-0.69679 c 0.189061,-0.38324 0.638411,-0.9791 0.998561,-1.32416 l 0.65483,-0.62736 v 0.70631 c 0,1.42078 -0.90776,2.94565 -1.753541,2.94565 -0.12191,0 -0.28785,-0.52989 -0.36877,-1.17752 z m -26.307105,-2.68347 c -0.458566,-0.69987 -0.691836,-2.64324 -0.382987,-3.19078 0.20928,-0.37102 0.29462,-0.29026 0.734767,0.69538 0.844588,1.89129 0.562679,3.89103 -0.35178,2.4954 z m 1.442653,-0.17587 c 0,-0.48893 0.222076,-0.91347 0.758311,-1.44971 0.820588,-0.82058 1.248968,-0.9609 1.248968,-0.4091 0,0.49096 -0.403352,1.21931 -1.072614,1.93686 -0.736673,0.78984 -0.934665,0.7733 -0.934665,-0.078 z m 23.666172,0.049 c -0.66959,-0.7168 -1.28519,-1.96311 -1.07398,-2.17432 0.25184,-0.25184 1.49639,0.69615 1.8261,1.39098 0.6421,1.35312 0.20521,1.80816 -0.75212,0.78334 z m 1.43379,0.43394 c -0.31285,-0.50621 0.737731,-3.58301 1.223431,-3.58301 0.11952,0 0.2173,0.58865 0.2173,1.30811 0,0.98566 -0.11394,1.45296 -0.46225,1.89576 -0.48596,0.61781 -0.764321,0.72566 -0.978481,0.37914 z m -0.42748,-1.69587 c -0.0765,-0.19933 -0.1327,-0.47966 -0.12493,-0.62296 0.008,-0.14329 0.1103,-0.0202 0.22782,0.27366 0.11753,0.29381 0.17375,0.57414 0.12494,0.62295 -0.0488,0.0488 -0.15134,-0.0743 -0.22783,-0.27365 z m -24.877901,-0.23299 c 0.0107,-0.25983 0.06356,-0.31267 0.134746,-0.13476 0.0644,0.16101 0.05648,0.35337 -0.01762,0.42748 -0.07409,0.0741 -0.126822,-0.0576 -0.117137,-0.29272 z m 0.651484,-1.19759 c 0,-0.57359 0.583078,-1.36288 1.235523,-1.67249 1.49946,-0.71153 1.672155,-0.13857 0.325051,1.07846 -0.856844,0.77411 -1.560574,1.04198 -1.560574,0.59403 z m 22.628107,-0.20299 c -0.69401,-0.42321 -1.56641,-1.53986 -1.36241,-1.74384 0.20901,-0.20902 1.43344,0.17319 1.77936,0.55543 0.18819,0.20794 0.44702,0.6539 0.57519,0.991 0.28426,0.74768 0.003,0.80381 -0.99214,0.19741 z M 73.832732,116.1117 c -0.465655,-0.87008 -0.126435,-3.58316 0.448003,-3.58316 0.250728,0 0.429889,0.89176 0.433235,2.15631 0.0051,1.75963 -0.374548,2.3736 -0.881238,1.42685 z m 25.258617,0.0807 c -0.2587,-0.63382 -0.17342,-3.19755 0.116,-3.48696 0.18402,-0.18402 0.3159,-0.079 0.50236,0.40013 0.395891,1.01724 0.355981,2.71785 -0.0738,3.14771 -0.34334,0.34334 -0.38123,0.33911 -0.54449,-0.0609 z m -36.510728,-1.04324 c 0.0882,-0.276 0.291063,-0.99543 0.450794,-1.59871 0.306708,-1.15839 0.949501,-2.11043 0.890503,-1.31891 -0.08025,1.07682 -0.892239,3.41944 -1.185199,3.41944 -0.227023,0 -0.271144,-0.14183 -0.156098,-0.50182 z m 12.88007,-1.67273 c 0.128483,-0.80826 1.179618,-2.06304 1.728212,-2.06304 0.412136,0 -0.339019,1.84983 -1.03292,2.54373 -0.596498,0.59649 -0.839782,0.4283 -0.695292,-0.48069 z m 21.944478,0.44606 c -0.19425,-0.21467 -0.55751,-0.86703 -0.80725,-1.4497 -0.55078,-1.28501 -0.21011,-1.43436 0.8511,-0.37315 0.499,0.49901 0.68625,0.89456 0.68625,1.4497 0,0.85046 -0.2039,0.95468 -0.7301,0.37315 z m -8.46993,-6.2253 c 0.15334,-0.0619 0.40424,-0.0619 0.55757,0 0.15335,0.0619 0.0279,0.11249 -0.27878,0.11249 -0.30667,0 -0.43213,-0.0506 -0.27879,-0.11249 z m 1.1291,-0.22769 c 0.16099,-0.0644 0.35336,-0.0565 0.42747,0.0176 0.0741,0.0741 -0.0577,0.12683 -0.29273,0.11714 -0.25981,-0.0107 -0.31267,-0.0636 -0.13474,-0.13475 z m -8.872966,-0.28497 c -0.53095,-0.33578 -0.168784,-0.40671 0.4396,-0.0861 0.307323,0.16196 0.407424,0.29379 0.223028,0.29372 -0.184,-6e-5 -0.482185,-0.0935 -0.662628,-0.20762 z m 10.252966,0.055 c 0.184,-0.0682 0.53528,-0.21638 0.78061,-0.32924 0.43892,-0.20192 0.43913,-0.19965 0.0131,0.14165 -0.23811,0.19077 -0.58938,0.33893 -0.78061,0.32924 -0.30033,-0.0152 -0.30212,-0.0345 -0.0132,-0.14165 z m -6.41576,-1.68074 c 0.10234,-1.4933 0.76747,-4.32869 0.96832,-4.12784 0.0479,0.0479 0.003,0.38317 -0.10165,0.74508 -0.10379,0.36192 -0.12717,1.55963 -0.0519,2.66161 l 0.13677,2.00357 0.6691,-0.0105 0.66909,-0.0104 0.0754,-1.77381 c 0.0865,-2.03332 -0.11451,-4.3127 -0.42254,-4.79186 -0.1845,-0.286993 -0.23761,-0.286107 -0.4301,0.007 -0.1208,0.184 -0.22116,0.22138 -0.22304,0.0831 -0.002,-0.13832 0.14547,-0.375048 0.32744,-0.526063 0.27305,-0.226619 0.36574,-0.182684 0.53056,0.251473 0.51961,1.36872 1.13709,4.02793 1.27446,5.48851 l 0.15207,1.61697 h -1.84239 -1.8424 l 0.1108,-1.61697 z m 0.55556,-1.11116 c -0.0496,-0.40087 -0.0913,-0.12666 -0.0925,0.60934 -0.002,0.736 0.0394,1.06398 0.0902,0.72884 0.0509,-0.33514 0.0519,-0.93732 0.002,-1.33818 z m -5.453486,1.67942 c -0.305916,-0.46622 -0.402155,-1.11001 -0.425101,-2.84365 l -0.02967,-2.24099 0.144979,2.23031 c 0.105015,1.61548 0.258601,2.39939 0.557132,2.84365 0.226678,0.33733 0.352733,0.61333 0.280121,0.61333 -0.07258,0 -0.309978,-0.27119 -0.527468,-0.60265 z m 12.914636,-0.1222 c 0.15315,-0.276 0.34118,-1.4051 0.41784,-2.5091 l 0.13936,-2.00728 0.0361,1.85108 c 0.025,1.28345 -0.0683,2.05287 -0.30419,2.50911 -0.18715,0.3619 -0.39141,0.65801 -0.45391,0.65801 -0.0625,0 0.0116,-0.22582 0.16482,-0.50182 z M 80.835395,98.410705 c -1.09701,-0.612245 0.61667,-1.257499 3.694974,-1.391281 1.27367,-0.05536 1.4599,-0.03067 0.78062,0.103486 -0.67828,0.133951 -0.35752,0.176182 1.33819,0.176182 1.70659,0 2.02082,-0.04178 1.33818,-0.177898 -0.67083,-0.133771 -0.4772,-0.157458 0.78061,-0.09549 3.1039,0.152912 4.73757,0.754336 3.73577,1.37529 -0.37027,0.229501 -11.258299,0.238566 -11.668344,0.0097 z m -1.43473,-0.936799 c 0,-0.306668 0.100362,-0.557577 0.223028,-0.557577 0.122667,0 0.223029,0.250909 0.223029,0.557577 0,0.306668 -0.100362,0.557577 -0.223029,0.557577 -0.122666,0 -0.223028,-0.250909 -0.223028,-0.557577 z m 14.050954,0.124678 c 0,-0.238095 0.0898,-0.488428 0.19966,-0.556296 0.23967,-0.148126 0.5236,0.498083 0.34548,0.786292 -0.21974,0.355539 -0.54514,0.218251 -0.54514,-0.229996 z M 80.366536,96.15372 c 0.08312,-0.216692 0.216816,-0.660663 0.297031,-0.986602 0.576242,-2.341464 3.267472,-4.272628 5.954242,-4.272628 2.71805,0 5.32911,1.826766 6.03144,4.219762 0.19513,0.664863 0.31887,1.244764 0.27497,1.288668 -0.0439,0.0439 -0.36524,-0.02868 -0.71408,-0.161315 -0.34884,-0.132629 -1.69258,-0.389898 -2.98609,-0.57171 -1.88816,-0.265394 -2.76958,-0.282233 -4.47064,-0.08541 -1.971866,0.22816 -3.312598,0.492965 -4.178739,0.825337 -0.273639,0.105004 -0.323272,0.04394 -0.208134,-0.256104 z M 67.261407,89.651889 c -0.259258,-0.259252 -0.350482,-0.807459 -0.350482,-2.106149 0,-1.508422 0.06339,-1.800094 0.450363,-2.071114 0.647919,-0.453823 1.545418,-0.213315 1.815837,0.4866 0.367679,0.951649 0.128331,3.369466 -0.369592,3.733557 -0.553693,0.404872 -1.113902,0.389331 -1.546126,-0.0429 z m 0.987704,-1.991349 c 0,-0.81778 -0.09722,-1.449702 -0.223028,-1.449702 -0.245476,0 -0.313359,2.511704 -0.07435,2.750717 0.271625,0.271627 0.297377,0.15898 0.297378,-1.301015 z m 5.966085,2.100931 c -0.321814,-0.187437 -0.390312,-0.550244 -0.390312,-2.067407 0,-2.060159 0.167654,-2.37535 1.263433,-2.37535 0.803156,0 1.189911,0.466435 1.189911,1.43504 0,0.461702 -0.107704,0.57224 -0.557579,0.57224 -0.470839,0 -0.557579,-0.104081 -0.557579,-0.669093 0,-0.368002 -0.100362,-0.669093 -0.223028,-0.669093 -0.127446,0 -0.223028,0.669093 -0.223028,1.561216 0,0.892125 0.09558,1.561218 0.223028,1.561218 0.122666,0 0.223028,-0.25091 0.223028,-0.557578 0,-0.446061 0.111522,-0.557577 0.557579,-0.557577 0.446065,0 0.557579,0.111516 0.557579,0.557577 0,1.073375 -1.144349,1.743891 -2.063032,1.208807 z m 17.229143,-0.205167 c -0.37609,-0.376092 -0.44606,-0.743437 -0.44606,-2.341826 0,-1.865463 0.009,-1.895764 0.54889,-1.895764 0.53569,0 0.55069,0.04695 0.62323,1.951522 l 0.0743,1.951521 0.0459,-1.951521 c 0.0452,-1.920706 0.0547,-1.951522 0.60345,-1.951522 0.55311,0 0.55757,0.01593 0.55757,1.991349 0,1.512942 -0.0842,2.075548 -0.35048,2.341826 -0.47733,0.477334 -1.12101,0.440198 -1.6568,-0.09558 z m 3.34546,0.283497 c -0.56541,-0.215232 -0.66213,-0.555452 -0.66567,-2.341392 -0.003,-1.583979 0.0407,-1.752266 0.54227,-2.080902 0.4692,-0.307429 0.63335,-0.315744 1.17092,-0.05932 0.49472,0.23599 0.63966,0.472476 0.69444,1.133021 0.063,0.759961 0.0193,0.834782 -0.48769,0.834782 -0.46117,0 -0.57238,-0.124612 -0.64687,-0.724851 -0.0495,-0.398668 -0.091,0.02788 -0.0922,0.947882 -0.002,0.920004 0.0395,1.396732 0.0906,1.059397 0.0721,-0.475619 0.21479,-0.613335 0.63568,-0.613335 0.44781,0 0.54277,0.111004 0.54277,0.634526 0,1.007051 -0.83324,1.572204 -1.78425,1.210189 z m 2.83481,-0.116224 c -0.29116,-0.217689 -0.38604,-0.718706 -0.43293,-2.286067 -0.0578,-1.932771 -0.0414,-2.009926 0.44177,-2.07855 0.48714,-0.06919 0.50182,-0.01497 0.50182,1.853169 0,1.226165 0.0809,1.874423 0.22303,1.786597 0.12266,-0.07582 0.22303,-0.934829 0.22303,-1.908926 0,-1.622398 0.0374,-1.771086 0.44606,-1.771086 0.41465,0 0.44607,0.148688 0.44607,2.110948 0,1.85877 -0.0515,2.138529 -0.4314,2.341826 -0.56932,0.304688 -0.96367,0.291358 -1.41745,-0.04791 z m 2.908241,0.09977 c -0.34055,-0.06694 -0.3903,-0.360731 -0.3903,-2.304807 v -2.228087 l 0.72485,0.06989 c 0.63448,0.06117 0.74205,0.167215 0.86276,0.850497 l 0.13792,0.780609 0.0293,-0.836367 c 0.0282,-0.801567 0.0619,-0.836366 0.80997,-0.836366 h 0.78061 v 2.23031 c 0,2.081624 -0.0298,2.230311 -0.44607,2.230311 -0.36615,0 -0.44667,-0.149826 -0.44947,-0.836367 -0.003,-0.622118 -0.0588,-0.750667 -0.21962,-0.501819 -0.11891,0.184 -0.21773,0.560365 -0.21961,0.836366 -0.007,0.974602 -0.63745,0.547646 -0.8238,-0.557577 l -0.17863,-1.059398 -0.11384,1.119761 c -0.093,0.915162 -0.18513,1.105744 -0.50412,1.043045 z M 64.011524,87.549024 v -2.23031 h 0.762366 c 1.138398,0 1.441641,0.190584 1.593811,1.001689 0.167452,0.892601 -0.207467,1.674684 -0.802811,1.674684 -0.362562,0 -0.438217,0.154012 -0.438217,0.892124 0,0.802911 -0.05572,0.892124 -0.55757,0.892124 h -0.557579 z m 1.561214,-0.892123 c 0,-0.245335 -0.100361,-0.446063 -0.223028,-0.446063 -0.122666,0 -0.223037,0.200728 -0.223037,0.446063 0,0.245334 0.100371,0.446062 0.223037,0.446062 0.122667,0 0.223028,-0.200728 0.223028,-0.446062 z m 4.237587,0.892123 v -2.23031 h 0.557579 c 0.54829,0 0.557579,0.02974 0.557579,1.784249 0,1.437311 0.06508,1.784248 0.334551,1.784248 0.185854,0 0.334542,0.19825 0.334542,0.446062 0,0.371718 -0.148688,0.446062 -0.892121,0.446062 h -0.89213 z m 2.230316,0 v -2.23031 h 0.557579 0.557571 v 2.23031 2.230311 H 72.59822 72.040641 Z m 4.683652,0 v -2.23031 h 0.557579 0.55757 v 2.23031 2.230311 h -0.55757 -0.557579 z m 1.561214,1.966627 c 0,-0.145026 0.11417,-1.153901 0.253703,-2.241946 l 0.253704,-1.97826 0.805693,0.06739 0.805694,0.06739 0.156426,1.449701 c 0.08604,0.797336 0.21604,1.775885 0.288897,2.174553 0.121098,0.662624 0.0837,0.724851 -0.435216,0.724851 -0.35592,0 -0.567686,-0.124797 -0.567686,-0.334547 0,-0.184001 -0.100362,-0.334546 -0.223029,-0.334546 -0.122666,0 -0.223028,0.150545 -0.223028,0.334546 0,0.208162 -0.210637,0.334547 -0.557579,0.334547 -0.306666,0 -0.557579,-0.118658 -0.557579,-0.263685 z m 1.4161,-1.862253 c -0.17691,-0.461031 -0.300942,-0.406702 -0.300942,0.131821 0,0.252573 0.09598,0.399905 0.213292,0.327403 0.117306,-0.0725 0.156747,-0.279152 0.08765,-0.459224 z m 2.598459,-0.104374 v -2.23031 h 1.009163 c 0.87805,0 1.03742,0.07433 1.22667,0.572098 0.30696,0.807371 0.27248,3.298281 -0.0502,3.620886 -0.1472,0.147201 -0.69921,0.267637 -1.22668,0.267637 h -0.959022 z m 1.338183,0 c 0,-0.743436 -0.0991,-1.338186 -0.22302,-1.338186 -0.12391,0 -0.22304,0.59475 -0.22304,1.338186 0,0.743438 0.0991,1.338187 0.22304,1.338187 0.1239,0 0.22302,-0.594749 0.22302,-1.338187 z m 1.56122,0.01282 v -2.243132 h 0.89213 c 0.74343,0 0.89212,0.07434 0.89212,0.446063 0,0.247812 -0.14869,0.446061 -0.33454,0.446061 -0.18587,0 -0.33455,0.19825 -0.33455,0.446063 0,0.247811 0.14868,0.446062 0.33455,0.446062 0.18585,0 0.33454,0.19825 0.33454,0.446061 0,0.247813 -0.14869,0.446063 -0.33454,0.446063 -0.51602,0 -0.40064,0.822816 0.135,0.962892 0.77183,0.201835 0.34943,0.704457 -0.65416,0.778422 l -0.93055,0.06858 z m 3.79153,0.433237 c 0,-1.437311 -0.0651,-1.784248 -0.33454,-1.784248 -0.18587,0 -0.33455,-0.19825 -0.33455,-0.446062 0,-0.386587 0.14868,-0.446062 1.11515,-0.446062 0.96647,0 1.11516,0.05948 1.11516,0.446062 0,0.245334 -0.10037,0.446062 -0.22304,0.446062 -0.1301,0 -0.22302,0.743437 -0.22302,1.784248 0,1.754511 -0.009,1.784249 -0.55758,1.784249 -0.54828,0 -0.55758,-0.02974 -0.55758,-1.784249 z m 15.035941,0.05576 c 0.23319,-2.610789 0.28312,-2.732131 1.12418,-2.732131 h 0.72264 l 0.25711,1.840006 c 0.35664,2.552181 0.3492,2.620615 -0.28467,2.620615 -0.32791,0 -0.58143,-0.153832 -0.64323,-0.390304 -0.0971,-0.371718 -0.10322,-0.371718 -0.12786,0 -0.0177,0.26654 -0.21244,0.390304 -0.61422,0.390304 h -0.58834 z m 1.17685,-0.664849 c -0.0566,-0.217002 -0.10653,-0.09346 -0.11108,0.274544 -0.004,0.368001 0.0417,0.545549 0.10282,0.394549 0.0611,-0.150999 0.0648,-0.452091 0.008,-0.669093 z m 1.62969,0.147516 c 0,-2.184048 0.0135,-2.243862 0.48863,-2.174552 0.33914,0.04946 0.55879,0.310111 0.7179,0.851878 l 0.22927,0.780609 0.0762,-0.836367 c 0.0594,-0.65282 0.17111,-0.836366 0.50877,-0.836366 0.39928,0 0.43261,0.171825 0.43261,2.23031 0,2.199008 -0.008,2.230311 -0.52971,2.230311 -0.41229,0 -0.56926,-0.160651 -0.70822,-0.724851 l -0.17854,-0.724851 -0.0865,0.724851 c -0.0642,0.538479 -0.19757,0.724851 -0.51845,0.724851 -0.39862,0 -0.43193,-0.173178 -0.43193,-2.245823 z"
       id="path145"
       inkscape:connector-curvature="0" />
  </g>
</svg>
