<?xml version="1.0" encoding="UTF-8" standalone="no"?>
<!-- Created with Inkscape (http://www.inkscape.org/) -->

<svg
   xmlns:dc="http://purl.org/dc/elements/1.1/"
   xmlns:cc="http://creativecommons.org/ns#"
   xmlns:rdf="http://www.w3.org/1999/02/22-rdf-syntax-ns#"
   xmlns:svg="http://www.w3.org/2000/svg"
   xmlns="http://www.w3.org/2000/svg"
   xmlns:sodipodi="http://sodipodi.sourceforge.net/DTD/sodipodi-0.dtd"
   xmlns:inkscape="http://www.inkscape.org/namespaces/inkscape"
   width="74.609398mm"
   height="88.600258mm"
   viewBox="0 0 74.609398 88.600258"
   version="1.1"
   id="svg8"
   inkscape:version="0.92.3 (2405546, 2018-03-11)"
   sodipodi:docname="logo.svg">
  <defs
     id="defs2" />
  <sodipodi:namedview
     id="base"
     pagecolor="#ffffff"
     bordercolor="#666666"
     borderopacity="1.0"
     inkscape:pageopacity="0.0"
     inkscape:pageshadow="2"
     inkscape:zoom="1.4"
     inkscape:cx="116.62873"
     inkscape:cy="158.85828"
     inkscape:document-units="mm"
     inkscape:current-layer="layer1"
     showgrid="false"
     inkscape:window-width="1366"
     inkscape:window-height="704"
     inkscape:window-x="0"
     inkscape:window-y="27"
     inkscape:window-maximized="1"
     fit-margin-top="0"
     fit-margin-left="0"
     fit-margin-right="0"
     fit-margin-bottom="0" />
  <metadata
     id="metadata5">
    <rdf:RDF>
      <cc:Work
         rdf:about="">
        <dc:format>image/svg+xml</dc:format>
        <dc:type
           rdf:resource="http://purl.org/dc/dcmitype/StillImage" />
        <dc:title></dc:title>
      </cc:Work>
    </rdf:RDF>
  </metadata>
  <g
     inkscape:label="Capa 1"
     inkscape:groupmode="layer"
     id="layer1"
     transform="translate(-54.146647,-56.12292)">
    <path
       style="fill:#1a1a1a;stroke-width:0.26458335"
       d="m 88.805513,143.31161 c -1.23693,-0.76048 -4.03489,-2.31429 -6.21771,-3.45292 -8.71611,-4.5466 -10.98136,-5.81698 -14.15521,-7.93842 -6.84572,-4.57577 -10.69859,-9.15712 -12.73624,-15.14432 -1.52234,-4.47307 -1.54799,-5.00308 -1.5497,-32.019029 -8.5e-4,-13.569815 0.0877,-24.679363 0.19688,-24.687882 0.10914,-0.0085 3.82985,-0.05529 8.26823,-0.103928 10.51002,-0.115183 16.86489,-0.854772 25.20901,-2.933858 l 3.64547,-0.908333 3.63057,0.90583 c 8.493607,2.119161 14.638417,2.837067 25.194117,2.943462 4.43839,0.04474 8.15909,0.08831 8.26823,0.09683 0.10914,0.0085 0.19774,11.058536 0.19688,24.555589 -0.001,20.439359 -0.0678,24.982239 -0.39792,27.185939 -0.93931,6.27032 -3.15866,10.60002 -7.8075,15.23158 -3.80015,3.78603 -7.24768,6.00149 -18.8145,12.09062 -3.874987,2.03991 -7.717067,4.13856 -8.537947,4.66368 -0.82089,0.52511 -1.63903,0.94195 -1.81811,0.9263 -0.17907,-0.0156 -1.33762,-0.65065 -2.57455,-1.41114 z m 4.7625,-1.4726 c 0.3638,-0.2529 3.45943,-1.92301 6.879167,-3.71136 8.00613,-4.1868 11.2447,-6.03535 14.02292,-8.00416 6.44699,-4.56874 10.12441,-9.46059 11.86445,-15.78256 l 0.69645,-2.53036 0.0784,-25.168179 0.0784,-25.168173 -8.54166,-0.149624 c -4.69792,-0.08229 -9.5537,-0.276223 -10.79063,-0.430956 -4.72825,-0.591478 -10.695767,-1.711941 -14.336637,-2.69185 l -2.03352,-0.547304 -2.72898,0.680747 c -8.89336,2.218456 -13.83771,2.823165 -24.49981,2.996401 l -8.54167,0.138783 0.0784,25.170076 0.0784,25.170079 0.69645,2.53036 c 1.25229,4.54983 3.53871,8.38686 7.04689,11.8259 3.58936,3.51863 6.88082,5.64316 17.12083,11.05095 4.04742,2.13746 8.0844,4.33381 8.97107,4.88078 1.7558,1.08313 1.94823,1.07019 3.86108,-0.25955 z m -6.5924,-2.0634 c -0.18828,-0.0628 -0.28677,-1.40552 -0.28677,-3.91 v -3.81441 h 1.98438 c 2.86696,0 3.04271,0.22631 3.04271,3.91818 0,1.88545 -0.11269,3.00424 -0.33073,3.28365 -0.23318,0.2988 -0.88998,0.45247 -2.22677,0.52099 -1.04283,0.0534 -2.02509,0.0542 -2.18282,0.002 z m 2.62365,-3.74005 c 0,-2.05392 -0.18809,-2.91125 -0.55841,-2.5452 -0.21871,0.21621 0.0801,4.91084 0.31261,4.91084 0.13519,0 0.2458,-1.06454 0.2458,-2.36564 z m 5.22552,3.76999 c -0.28073,-0.0729 -0.46302,-0.37301 -0.46302,-0.7623 0,-0.58725 -0.10458,-0.64205 -1.22524,-0.64205 h -1.22524 l 0.14355,-0.8599 c 0.079,-0.47294 0.52251,-1.90169 0.98568,-3.175 l 0.84213,-2.3151 h 1.29789 1.2979 v 2.49149 c 0,1.66876 0.10234,2.5256 0.30991,2.5948 0.4349,0.14496 0.46744,1.21338 0.0419,1.37666 -0.19351,0.0743 -0.35184,0.37688 -0.35184,0.67249 0,0.29561 -0.10933,0.53747 -0.24295,0.53747 -0.13362,0 -0.40151,0.0454 -0.59531,0.10085 -0.1938,0.0555 -0.56073,0.0467 -0.81539,-0.0194 z m -0.3638,-3.55409 c 0.23875,-1.19375 0.21014,-1.70639 -0.0786,-1.40891 -0.36693,0.378 -0.65584,2.23573 -0.34769,2.23573 0.14352,0 0.33537,-0.37207 0.42632,-0.82682 z m -5.9862,-5.28905 c -0.64559,-0.48166 -0.7276,-0.71334 -0.7276,-2.05537 0,-1.67113 0.29346,-2.14751 1.32291,-2.14751 1.02567,0 1.32292,0.47561 1.32292,2.11667 0,0.81491 -0.14287,1.62454 -0.3175,1.79916 -0.24694,0.24695 -0.24694,0.3175 0,0.3175 0.17463,0 0.3175,0.11906 0.3175,0.26459 0,0.45215 -1.15481,0.27453 -1.91823,-0.29504 z m 0.82921,-2.15236 c -0.0319,-1.44328 -0.13589,-1.30469 -0.29781,0.39687 -0.0519,0.54571 8e-4,0.99219 0.11704,0.99219 0.1163,0 0.19765,-0.62508 0.18077,-1.38906 z m -6.84848,1.40629 c 0,-0.42709 -0.10163,-1.05217 -0.22584,-1.38907 -0.57979,-1.57254 -0.59767,-2.06774 -0.0746,-2.06774 0.28731,0 0.58779,0.25551 0.70009,0.59531 l 0.19674,0.59531 0.1171,-0.59531 c 0.073,-0.37133 0.30928,-0.59531 0.62787,-0.59531 0.61471,0 0.62473,0.13965 0.11389,1.5875 -0.21828,0.61867 -0.39687,1.46708 -0.39687,1.88535 0,0.58409 -0.12274,0.76048 -0.52917,0.76048 -0.40897,0 -0.52917,-0.17639 -0.52917,-0.77652 z m 3.175,-1.34014 v -2.11667 h 0.92604 c 1.01912,0 1.27518,0.56956 0.46302,1.0299 -0.43387,0.24593 -0.42971,0.2884 0.0661,0.67461 0.50037,0.38972 0.50397,0.43174 0.0661,0.77205 -0.56755,0.44115 -0.60339,0.96302 -0.0661,0.96302 0.21829,0 0.39688,0.1786 0.39688,0.39688 0,0.27718 -0.27928,0.39687 -0.92604,0.39687 h -0.92604 z m 5.46806,1.94027 c -0.097,-0.097 -0.17639,-1.04951 -0.17639,-2.11666 0,-1.74941 0.0509,-1.94028 0.51757,-1.94028 0.45772,0 0.52814,0.22183 0.60889,1.91823 l 0.0913,1.91823 0.0526,-1.93663 c 0.0497,-1.83055 0.0844,-1.932 0.6336,-1.85209 0.50571,0.0736 0.59407,0.2792 0.68151,1.58585 0.1296,1.93681 -0.21721,2.59974 -1.36004,2.59974 -0.47995,0 -0.95201,-0.0794 -1.04902,-0.17639 z m 2.73403,-1.95868 c 0,-2.0628 0.0202,-2.1322 0.59531,-2.05052 0.55418,0.0787 0.59847,0.22622 0.64106,2.13507 0.0448,2.00603 0.0318,2.05052 -0.59531,2.05052 -0.6254,0 -0.64106,-0.0522 -0.64106,-2.13507 z m 1.5875,0.0184 v -2.11667 h 0.90714 c 1.00385,0 1.85026,0.65054 1.62161,1.24638 -0.0811,0.21141 -0.1475,0.54523 -0.1475,0.7418 0,0.19657 -0.23813,0.43298 -0.52917,0.52536 -0.37069,0.11765 -0.52917,0.40032 -0.52917,0.94387 0,0.65126 -0.10627,0.77592 -0.66146,0.77592 -0.65043,0 -0.66145,-0.0353 -0.66145,-2.11667 z m 1.49814,-1.12448 c -0.0734,-0.1819 -0.13345,-0.0331 -0.13345,0.33073 0,0.3638 0.0601,0.51263 0.13345,0.33073 0.0734,-0.1819 0.0734,-0.47956 0,-0.66146 z m 1.53523,2.96146 c -0.31736,-0.5135 -0.14919,-3.50815 0.21025,-3.74391 0.18054,-0.11841 0.6828,-0.18428 1.11614,-0.14637 0.710487,0.0622 0.807447,0.18428 0.986877,1.2431 0.10944,0.6458 0.10518,1.53877 -0.009,1.98438 -0.17797,0.6918 -0.34759,0.82198 -1.160727,0.89085 -0.52525,0.0445 -1.03786,-0.0578 -1.14309,-0.22805 z m 1.12713,-2.42755 c -0.0589,-0.47555 -0.10828,-0.15026 -0.10977,0.72286 -0.002,0.87313 0.0467,1.26221 0.10707,0.86464 0.0604,-0.39758 0.0616,-1.11195 0.003,-1.5875 z m 1.836717,2.53085 c -0.097,-0.097 -0.17639,-0.46693 -0.17639,-0.82205 0,-0.46522 0.11091,-0.6031 0.39687,-0.49337 0.51864,0.19903 0.51014,-0.20147 -0.0135,-0.63606 -0.24981,-0.20732 -0.37921,-0.65998 -0.33073,-1.15688 0.0744,-0.76266 0.14918,-0.81628 1.138,-0.81628 0.89609,0 1.07129,0.0913 1.14288,0.59531 0.0643,0.45283 -0.0465,0.59532 -0.46302,0.59532 -0.30116,0 -0.54756,-0.13891 -0.54756,-0.30869 0,-0.16977 -0.0826,-0.22611 -0.18349,-0.12519 -0.10092,0.10092 0.19674,0.53077 0.66146,0.95522 0.8818,0.80541 1.06684,1.53217 0.52744,2.07157 -0.33754,0.33754 -1.85595,0.43711 -2.15194,0.14111 z m 1.05717,-1.21267 c -0.0734,-0.1819 -0.13345,-0.0331 -0.13345,0.33073 0,0.3638 0.06,0.51263 0.13345,0.33072 0.0734,-0.1819 0.0734,-0.47955 0,-0.66145 z m -33.512727,-6.03376 v -2.13116 l 1.25677,0.0806 1.25677,0.0806 0.0792,1.8284 c 0.0893,2.06276 -0.0514,2.26227 -1.60055,2.26859 l -0.99219,0.004 z m 1.51278,-0.70947 c -0.0608,-0.40218 -0.1122,-0.13593 -0.11419,0.59168 -0.002,0.7276 0.0478,1.05666 0.11058,0.73124 0.0628,-0.32542 0.0644,-0.92074 0.004,-1.32292 z m 1.66222,0.72397 c 0,-1.94028 0.0441,-2.11667 0.52917,-2.11667 0.48507,0 0.52916,0.17639 0.52916,2.11667 0,1.94028 -0.0441,2.11667 -0.52916,2.11667 -0.48507,0 -0.52917,-0.17639 -0.52917,-2.11667 z m 1.73648,0.85989 c -0.0966,-0.69122 -0.24246,-1.64372 -0.32407,-2.11666 -0.13536,-0.7844 -0.0891,-0.8599 0.52731,-0.8599 0.60265,0 0.68664,0.12155 0.77697,1.12448 l 0.10128,1.12448 0.0462,-1.12448 c 0.042,-1.02133 0.10903,-1.12448 0.73094,-1.12448 0.75163,0 0.73032,-0.31027 0.21807,3.175 -0.14541,0.98939 -0.2124,1.05834 -1.02829,1.05834 -0.84012,0 -0.87931,-0.047 -1.04843,-1.25678 z m 2.76144,-0.85989 c 0,-1.94028 0.0441,-2.11667 0.52916,-2.11667 0.48507,0 0.52917,0.17639 0.52917,2.11667 0,1.94028 -0.0441,2.11667 -0.52917,2.11667 -0.48506,0 -0.52916,-0.17639 -0.52916,-2.11667 z m 1.91823,1.94759 c -0.1819,-0.0768 -0.33073,-0.42734 -0.33073,-0.77901 0,-0.46303 0.14598,-0.63941 0.52916,-0.63941 0.31963,0 0.53744,0.18335 0.55006,0.46302 0.0128,0.28355 0.0732,0.33319 0.15575,0.12806 0.0742,-0.18422 -0.23288,-0.67848 -0.68235,-1.09834 -0.81751,-0.76367 -0.97962,-1.22809 -0.61472,-1.761 0.58423,-0.85321 2.44335,-0.54153 2.44335,0.40962 0,0.67483 -0.96707,0.73647 -1.14053,0.0727 -0.11288,-0.43193 -0.12307,-0.43234 -0.1517,-0.006 -0.0169,0.2513 0.2731,0.65597 0.6444,0.89925 0.55079,0.36089 0.66039,0.61776 0.59531,1.39516 -0.0712,0.85089 -0.1647,0.95833 -0.87352,1.00424 -0.43657,0.0283 -0.94258,-0.0114 -1.12448,-0.0882 z m 2.55932,-1.0877 c -0.0112,-0.69122 -0.041,-1.64373 -0.0661,-2.11668 -0.0388,-0.72895 0.0449,-0.85992 0.54953,-0.8599 0.56775,2e-5 0.59531,0.098 0.59531,2.11669 0,1.94028 -0.0441,2.11667 -0.52916,2.11667 -0.45204,0 -0.53214,-0.18318 -0.54954,-1.25678 z m 1.8919,1.00982 c -0.43242,-0.27367 -0.54127,-3.31684 -0.13229,-3.69828 0.49374,-0.46049 1.34355,-0.54615 1.83719,-0.18519 0.4192,0.30653 0.49476,0.65373 0.44062,2.02467 -0.0359,0.91008 -0.12807,1.75618 -0.20473,1.88022 -0.18322,0.29646 -1.46078,0.28235 -1.94079,-0.0214 z m 0.96605,-2.72487 c -0.0589,-0.47555 -0.10828,-0.15026 -0.10977,0.72287 -0.002,0.87312 0.0467,1.26221 0.10707,0.86463 0.0604,-0.39757 0.0616,-1.11195 0.003,-1.5875 z m 1.66033,0.85516 c 0,-1.9096 0.0496,-2.11667 0.50712,-2.11667 0.31241,0 0.60915,0.27937 0.77286,0.72761 l 0.26575,0.7276 0.0209,-0.7276 c 0.0156,-0.54426 0.15423,-0.72761 0.55005,-0.72761 0.48545,0 0.52917,0.17639 0.52917,2.13507 0,2.05153 -0.0229,2.13176 -0.58447,2.05052 -0.3589,-0.0519 -0.65505,-0.33982 -0.76738,-0.746 l -0.1829,-0.66146 -0.0264,0.7276 c -0.0197,0.54243 -0.16105,0.72761 -0.55554,0.72761 -0.48507,0 -0.52917,-0.17639 -0.52917,-2.11667 z m 3.80143,1.38906 c 0.0766,-0.40018 0.21632,-1.35268 0.31044,-2.11667 0.16775,-1.36167 0.1884,-1.38906 1.04751,-1.38906 0.8591,0 0.87975,0.0274 1.0475,1.38906 0.0941,0.76399 0.23382,1.71649 0.31044,2.11667 0.11498,0.60053 0.0455,0.72761 -0.39773,0.72761 -0.29538,0 -0.6584,-0.20836 -0.80673,-0.46303 -0.25684,-0.44097 -0.27007,-0.44097 -0.27773,0 -0.006,0.31923 -0.22,0.46303 -0.69053,0.46303 -0.6019,0 -0.66603,-0.0859 -0.54317,-0.72761 z m 1.40088,-1.71979 c -0.0734,-0.1819 -0.13345,-0.0331 -0.13345,0.33073 0,0.3638 0.06,0.51263 0.13345,0.33073 0.0734,-0.1819 0.0734,-0.47956 0,-0.66146 z m 1.67686,0.31551 v -2.13188 l 1.12448,0.0814 1.12448,0.0814 0.0669,2.05052 c 0.0612,1.87682 0.0233,2.05053 -0.44705,2.05053 -0.39903,0 -0.53713,-0.22182 -0.61771,-0.99219 l -0.10379,-0.99219 -0.0445,0.99219 c -0.0359,0.80097 -0.14646,0.99219 -0.57364,0.99219 -0.48539,0 -0.52917,-0.17639 -0.52917,-2.13189 z m 1.23907,-1.09272 c -0.0845,-0.21107 -0.14715,-0.14838 -0.15985,0.15985 -0.0115,0.27891 0.051,0.43518 0.13896,0.34726 0.0879,-0.0879 0.0973,-0.31612 0.0209,-0.50711 z m 1.67135,1.10794 v -2.11667 h 0.77617 c 0.64363,0 0.795,0.12426 0.8864,0.72761 l 0.11022,0.7276 0.0396,-0.7276 c 0.034,-0.62325 0.15349,-0.72761 0.8334,-0.72761 h 0.79375 v 2.13607 c 0,1.89468 -0.0523,2.12517 -0.46302,2.03968 -0.30298,-0.0631 -0.4403,-0.30373 -0.39728,-0.69623 0.0378,-0.34501 -0.0465,-0.53048 -0.19843,-0.43656 -0.14531,0.0898 -0.26419,0.39437 -0.26419,0.67682 0,0.88482 -0.7514,0.58463 -0.86693,-0.34634 l -0.10672,-0.8599 -0.0423,0.8599 c -0.033,0.66939 -0.15957,0.8599 -0.57151,0.8599 -0.48507,0 -0.52917,-0.17639 -0.52916,-2.11667 z m 3.8132,1.05833 c 0.0856,-0.58208 0.22554,-1.53458 0.31109,-2.11667 0.1454,-0.98926 0.21248,-1.05833 1.027847,-1.05833 0.8644,0 0.87395,0.0138 1.05469,1.52136 0.10031,0.83674 0.246,1.78924 0.32375,2.11666 0.11169,0.47036 0.027,0.59532 -0.40334,0.59532 -0.29959,0 -0.65194,-0.19163 -0.78301,-0.42584 -0.21903,-0.39139 -0.25153,-0.39139 -0.40172,0 -0.0899,0.23421 -0.415727,0.42584 -0.724127,0.42584 -0.50372,0 -0.54492,-0.10761 -0.40518,-1.05834 z m 1.389107,-1.38906 c -0.0734,-0.1819 -0.13346,-0.0331 -0.13346,0.33073 0,0.3638 0.0601,0.51263 0.13346,0.33073 0.0734,-0.1819 0.0734,-0.47956 0,-0.66146 z m 1.67685,0.33073 c 0,-2.06193 0.0165,-2.11667 0.63941,-2.11667 0.45673,0 0.71534,0.20788 0.90516,0.72761 l 0.26574,0.7276 0.0209,-0.7276 c 0.018,-0.62742 0.13019,-0.72761 0.81465,-0.72761 h 0.79375 v 2.11667 c 0,1.91719 -0.0483,2.11667 -0.5124,2.11667 -0.37982,0 -0.54002,-0.22251 -0.61912,-0.8599 l -0.10671,-0.8599 -0.0423,0.8599 c -0.0262,0.53269 -0.18078,0.8599 -0.40615,0.8599 -0.20009,0 -0.45911,-0.38696 -0.57559,-0.8599 l -0.2118,-0.8599 -0.10262,0.8599 c -0.0625,0.52348 -0.25134,0.8599 -0.48274,0.8599 -0.29875,0 -0.38011,-0.45307 -0.38011,-2.11667 z m 3.96875,0 v -2.11667 h 0.92604 c 0.64676,0 0.92605,0.11969 0.92605,0.39688 0,0.21828 -0.1786,0.39687 -0.39688,0.39687 -0.21828,0 -0.39687,0.1786 -0.39687,0.39688 0,0.21828 0.17859,0.39687 0.39687,0.39687 0.21828,0 0.39688,0.1786 0.39688,0.39688 0,0.21828 -0.1786,0.39687 -0.39688,0.39687 -0.21828,0 -0.39687,0.1786 -0.39687,0.39688 0,0.21828 0.17859,0.39687 0.39687,0.39687 0.22049,0 0.39688,0.23519 0.39688,0.52917 0,0.42837 -0.17639,0.52917 -0.92605,0.52917 h -0.92604 z m 2.11667,0 c 0,-1.95147 0.042,-2.11667 0.53769,-2.11667 0.31032,0 0.63888,0.25174 0.77698,0.59531 l 0.23929,0.59532 0.0168,-0.59532 c 0.0117,-0.41333 0.17853,-0.59531 0.54594,-0.59531 0.48507,0 0.52917,0.17639 0.52917,2.11667 0,1.9096 -0.0496,2.11667 -0.50712,2.11667 -0.31241,0 -0.60915,-0.27937 -0.77286,-0.72761 l -0.26575,-0.7276 -0.0209,0.7276 c -0.0156,0.54425 -0.15424,0.72761 -0.55006,0.72761 -0.48507,0 -0.52917,-0.17639 -0.52917,-2.11667 z m 3.61597,1.94028 c -0.097,-0.097 -0.17639,-0.87092 -0.17639,-1.7198 0,-0.85254 -0.11843,-1.5434 -0.26458,-1.5434 -0.14552,0 -0.26458,-0.17859 -0.26458,-0.39687 0,-0.29398 0.30868,-0.39688 1.19062,-0.39688 0.88195,0 1.19063,0.1029 1.19063,0.39688 0,0.21828 -0.11906,0.39687 -0.26459,0.39687 -0.14925,0 -0.26458,0.74965 -0.26458,1.71979 0,1.49129 -0.0645,1.7198 -0.48507,1.7198 -0.26679,0 -0.56444,-0.0794 -0.66146,-0.17639 z m 2.25778,-0.14111 c -0.17462,-0.17463 -0.3175,-1.00532 -0.3175,-1.84599 0,-1.31407 0.0876,-1.58585 0.62418,-1.93746 0.63023,-0.41294 1.44358,-0.30332 1.81917,0.24519 0.31753,0.46372 0.22876,3.19448 -0.11502,3.53826 -0.17462,0.17462 -0.62706,0.3175 -1.00541,0.3175 -0.37836,0 -0.83079,-0.14288 -1.00542,-0.3175 z m 1.26595,-1.86532 c -0.002,-0.76398 -0.0951,-1.24579 -0.20643,-1.07067 -0.1113,0.17512 -0.1799,0.77043 -0.15244,1.32292 0.0572,1.15069 0.0544,1.13682 0.23063,1.13682 0.0728,0 0.13047,-0.62508 0.12824,-1.38907 z m -30.423037,-3.12234 c 0,-0.59726 2.00089,-2.11288 3.00688,-2.27763 1.28149,-0.20987 0.81394,-0.49542 -1.15479,-0.70528 -0.80037,-0.0853 -1.30638,-0.0909 -1.12448,-0.0125 1.17614,0.5071 -0.73743,1.95028 -2.57969,1.94554 -2.81483,-0.007 -2.29838,-1.07237 0.94697,-1.95305 l 1.07926,-0.29287 -1.2849,-0.58071 c -0.7067,-0.31939 -1.21188,-0.46255 -1.12263,-0.31813 0.26368,0.42665 -0.39962,1.00675 -1.35638,1.18624 -0.64109,0.12027 -1.23032,0.003 -2.10229,-0.41939 -1.70971,-0.82767 -1.40369,-1.18893 1.00714,-1.18893 1.10743,0 1.92996,-0.0599 1.82786,-0.13302 -0.10211,-0.0732 -0.65002,-0.54942 -1.21758,-1.05834 -0.56755,-0.50892 -0.94779,-0.77698 -0.84497,-0.5957 0.26812,0.47272 -0.96897,0.96779 -1.85972,0.74423 -0.79232,-0.19887 -2.5706,-1.90558 -2.35275,-2.25807 0.15772,-0.25519 2.09206,0.14258 3.07972,0.6333 l 0.69453,0.34508 -0.6847,-1.09975 c -0.58374,-0.93762 -0.79349,-1.08379 -1.42262,-0.99145 -0.40927,0.0601 -1.0308,-0.0836 -1.39549,-0.32255 -0.73438,-0.48118 -1.82845,-2.41919 -1.58662,-2.81049 0.18645,-0.30167 1.23992,0.3118 2.42908,1.41452 l 0.84536,0.78392 0.17059,-0.76543 c 0.36779,-1.65027 0.69341,-2.44047 1.19135,-2.8911 0.50955,-0.46113 0.51921,-0.44434 0.51921,0.90255 0,1.59116 -0.62544,3.34276 -1.09088,3.0551 -0.35467,-0.2192 0.37014,1.06984 1.13693,2.02197 l 0.51863,0.64398 -0.30784,-0.62557 c -0.36275,-0.73714 -0.14022,-2.64282 0.39391,-3.37328 0.34412,-0.47062 0.37652,-0.45416 0.58072,0.295 0.32947,1.20878 0.24449,3.57803 -0.1368,3.81368 -0.45386,0.2805 1.26497,1.77067 2.80264,2.42979 1.57225,0.67395 1.76903,0.6358 1.15803,-0.22452 -0.54415,-0.76618 -1.02576,-2.97943 -0.64683,-2.97251 0.75814,0.0139 2.20607,2.22221 2.20607,3.36466 0,0.64595 0.1171,0.86536 0.46302,0.86754 0.25466,0.002 0.93927,0.0721 1.52136,0.1567 l 1.05833,0.1538 -0.92604,-0.48744 c -0.91477,-0.4815 -2.38883,-2.817 -2.01434,-3.1915 0.0929,-0.0929 0.61389,0.0577 1.15777,0.33464 1.47169,0.7494 1.48122,0.75215 1.22413,0.35323 -0.39782,-0.61728 -0.10189,-18.425568 0.32636,-19.639338 0.20043,-0.56808 0.36441,-1.9704 0.36441,-3.11627 v -2.0834 l -0.85989,-0.0264 c -0.47295,-0.0145 -1.15756,-0.13196 -1.52136,-0.26101 -0.56542,-0.20056 -0.53181,-0.21594 0.23151,-0.10591 0.49113,0.0708 1.58745,0.12871 2.43627,0.12871 h 1.5433 l 0.0773,2.05052 c 0.0608,1.61195 0.16215,2.05052 0.47414,2.05052 0.312,0 0.41341,-0.43857 0.47415,-2.05052 0.0722,-1.91541 0.11577,-2.05048 0.66146,-2.04983 0.55578,5.3e-4 0.58557,0.11322 0.61261,2.3151 0.0176,1.43473 0.1936,2.75446 0.46302,3.47216 0.37204,0.99111 0.4346,2.46048 0.4346,10.208508 0,4.97792 -0.0664,9.11719 -0.14761,9.19837 -0.0812,0.0812 -0.36003,0.0921 -0.61965,0.0242 -0.4382,-0.11459 -0.48419,-0.81884 -0.64172,-9.82695 -0.0933,-5.336938 -0.24509,-9.971408 -0.33725,-10.298828 -0.13209,-0.46928 -0.35996,-0.59531 -1.07626,-0.59531 -1.60634,0 -1.67543,0.46786 -1.67543,11.346528 0,7.3616 -0.0747,9.54162 -0.33073,9.64491 -0.1819,0.0734 0.74084,0.14109 2.05052,0.15043 1.62246,0.0116 2.59203,-0.10489 3.04271,-0.36551 2.12504,-1.22884 2.33474,-1.20444 1.8656,0.21706 -0.37252,1.12873 -1.47933,2.27927 -2.23241,2.3206 -0.32842,0.018 -0.39543,0.0735 -0.16236,0.13435 0.21829,0.057 0.91821,0.0126 1.55539,-0.0987 1.07802,-0.18828 1.16337,-0.26411 1.22845,-1.09142 0.0712,-0.90544 1.31233,-2.94521 1.91252,-3.14325 0.87645,-0.2892 0.0397,3.05713 -0.90125,3.60407 -0.86702,0.50398 -0.14562,0.31716 1.37917,-0.35718 1.505247,-0.66569 2.969297,-1.72533 3.391987,-2.45503 0.14924,-0.25762 0.13554,-0.34076 -0.0384,-0.23325 -0.37852,0.23394 -0.59097,-0.45477 -0.58673,-1.90205 0.004,-1.39929 0.22596,-2.42576 0.52431,-2.42576 0.41018,0 0.84709,1.60241 0.75446,2.76707 -0.0526,0.66092 -0.0692,1.20168 -0.0371,1.20168 0.0322,0 0.36046,-0.44436 0.72951,-0.98746 0.67406,-0.99198 0.86568,-1.54534 0.4451,-1.28541 -0.34444,0.21288 -0.86649,-1.14002 -1.02328,-2.65188 -0.0868,-0.83703 -0.0306,-1.42069 0.14742,-1.5307 0.372,-0.22991 1.36376,1.7001 1.37439,2.6746 0.007,0.64836 0.0422,0.67945 0.28864,0.25561 0.53437,-0.9189 0.75066,-2.03102 0.39502,-2.03102 -0.44918,0 -1.39743,-1.75361 -1.63263,-3.01924 -0.16945,-0.91181 -0.1381,-1.01406 0.26365,-0.85989 0.25078,0.0962 0.51124,0.17497 0.57879,0.17497 0.23281,0 1.41623,2.77923 1.41881,3.33201 10e-4,0.30465 -0.23003,1.23002 -0.51435,2.0564 l -0.51693,1.50249 0.84766,-0.89385 c 0.46622,-0.49162 1.23462,-1.09263 1.70756,-1.33558 0.79365,-0.4077 0.8599,-0.40831 0.8599,-0.008 0,0.73544 -1.09042,2.41989 -1.76565,2.72755 -0.78132,0.35599 -1.59883,0.3781 -1.71803,0.0465 -0.0485,-0.13495 -0.46475,0.33898 -0.92499,1.05318 l -0.83679,1.29854 0.74285,-0.38414 c 0.98539,-0.50956 2.88549,-0.92586 3.04535,-0.66721 0.19487,0.31532 -0.87912,1.55404 -1.72797,1.99299 -0.94428,0.48831 -1.6966,0.49904 -2.16476,0.0309 -0.30455,-0.30455 -0.51366,-0.23247 -1.3432,0.46302 l -0.98249,0.82373 1.65503,-0.0735 c 2.08984,-0.0928 2.68487,0.22108 1.828,0.96423 -0.884,0.7667 -2.45475,0.96248 -3.47772,0.43348 -0.51809,-0.26791 -0.78525,-0.57451 -0.69823,-0.80129 0.0987,-0.25727 -0.11285,-0.21257 -0.706157,0.14919 -0.46591,0.28408 -1.08524,0.52479 -1.37628,0.53491 -0.29105,0.0101 0.0983,0.18733 0.86514,0.39379 0.766877,0.20646 1.771817,0.5706 2.233197,0.80919 0.79527,0.41125 0.81301,0.45273 0.34106,0.79783 -0.27381,0.20021 -1.06851,0.36402 -1.76601,0.36402 -1.038287,0 -1.424797,-0.14316 -2.132237,-0.78977 -0.7301,-0.66733 -0.80254,-0.83311 -0.4672,-1.06925 0.28882,-0.20338 0.0367,-0.23152 -0.92604,-0.10335 -1.55565,0.20711 -2.49963,0.61876 -1.44793,0.63141 0.71759,0.009 1.54209,0.48214 2.7047,1.55333 0.92065,0.84824 0.91739,1.10055 -0.0142,1.10055 -1.23874,0 -3.41062,-1.23933 -3.71822,-2.12171 -0.25452,-0.73011 -0.31508,-0.75679 -1.09822,-0.48378 -0.82178,0.28647 -2.30797,0.19976 -3.28255,-0.19153 -0.36423,-0.14623 -0.45069,-0.11314 -0.30793,0.11786 0.31739,0.51354 -0.51742,1.51387 -1.76901,2.11975 -1.22942,0.59516 -2.576,0.74223 -2.576,0.28134 z m 8.23516,-2.89693 c 0.35617,0 0.4961,-0.19147 0.4961,-0.67885 0,-0.37337 0.10738,-0.87939 0.23864,-1.12448 0.2159,-0.40317 5.3e-4,-0.44563 -2.2607,-0.44563 h -2.49935 l 0.17153,0.66146 c 0.0943,0.3638 0.20014,0.84005 0.23511,1.05833 0.0749,0.46776 1.28532,0.79543 2.3619,0.63941 0.41837,-0.0606 0.98392,-0.11024 1.25677,-0.11024 z m -3.53714,-22.670628 c 0.18099,-0.31785 0.3243,-0.67504 0.31847,-0.79375 -0.006,-0.1187 -0.21418,0.14136 -0.46302,0.57792 -0.37586,0.65943 -0.4572,1.57731 -0.48067,5.423958 l -0.0283,4.63021 0.16221,-4.63021 c 0.10222,-2.918278 0.28386,-4.843878 0.49126,-5.208128 z m -24.57968,24.242168 c -0.23672,-0.13247 -1.46523,-0.3204 -2.73002,-0.41762 -2.17312,-0.16704 -2.29082,-0.20728 -2.13944,-0.73149 0.44104,-1.52726 1.99696,-9.62186 1.99696,-10.3891 0,-0.60694 -0.12354,-0.88125 -0.39688,-0.88125 -0.21828,0 -0.39687,-0.1357 -0.39687,-0.30156 0,-0.16585 -0.18508,-0.43689 -0.41128,-0.60229 -0.56444,-0.41273 -0.21153,-1.21281 0.53497,-1.21281 0.54439,0 0.70659,-0.38548 1.86483,-4.43177 0.69771,-2.437478 1.47547,-5.443808 1.72834,-6.680728 0.46976,-2.29787 2.6849,-10.386391 3.20917,-11.718181 0.24312,-0.6176 0.21316,-0.79453 -0.18367,-1.0847 -0.43768,-0.32004 -0.40518,-0.38114 0.42242,-0.794 0.8421,-0.4201 0.91649,-0.42005 1.22424,8.2e-4 0.26356,0.36043 0.35015,0.37545 0.44258,0.0768 0.3327,-1.075068 1.75597,-6.446107 2.1498,-8.112765 0.46027,-1.947812 0.76651,-2.444624 1.22456,-1.986581 0.16174,0.161744 -0.0301,1.154855 -0.52969,2.741842 -1.48752,4.725383 -2.09421,6.991134 -2.24207,8.373324 -0.18507,1.72991 -3.04976,12.228541 -3.48394,12.768051 -0.54386,0.67582 -0.63334,1.54348 -0.19681,1.9085 0.22393,0.18725 1.3725,0.58042 2.55237,0.8737 l 2.14522,0.53325 0.13229,1.64961 c 0.15421,1.922848 0.21343,1.895298 -2.47295,1.15039 -1.53888,-0.42672 -1.82131,-0.44371 -1.94664,-0.11709 -0.0806,0.21013 -0.29607,0.324698 -0.47873,0.25461 -0.2178,-0.0836 -0.39016,0.235458 -0.50072,0.926878 -0.19905,1.24476 -0.0168,1.6456 0.66677,1.46683 0.2927,-0.0765 0.43188,-0.021 0.336,0.13416 -0.09,0.14566 -0.44377,0.21128 -0.78611,0.14584 -0.34234,-0.0654 -0.55948,-0.0171 -0.48254,0.10738 0.0769,0.1245 0.24192,0.22636 0.36661,0.22636 0.33044,0 2.65387,2.21264 2.64472,2.51861 -0.004,0.14273 -0.37421,0.66262 -0.82209,1.15531 -0.88858,0.97745 -0.80739,1.01347 -1.87037,-0.82965 -0.31472,-0.5457 -0.72583,-0.99219 -0.91358,-0.99219 -0.56477,0 -1.07464,1.3693 -0.9498,2.55079 0.0748,0.70821 -0.0274,1.31629 -0.28916,1.71979 -0.56375,0.86907 -0.95591,4.08103 -0.64056,5.24651 0.13898,0.51368 0.61208,1.80332 1.05132,2.86589 0.43924,1.06256 0.75419,1.97636 0.69988,2.03067 -0.0543,0.0543 -0.29242,-0.01 -0.52913,-0.14211 z m -0.75699,-1.3731 c -6.3e-4,-0.0364 -0.29578,-0.89958 -0.65588,-1.91823 -0.36009,-1.01865 -0.65723,-2.23904 -0.6603,-2.71198 -0.0103,-1.58968 -0.67117,-0.9781 -1.00065,0.92604 -0.16996,0.98227 -0.38608,2.16491 -0.48025,2.6281 -0.16649,0.81884 -0.14293,0.84509 0.85048,0.94771 1.80014,0.18596 1.94778,0.1957 1.9466,0.12836 z m -0.95319,-7.23154 c 0.24094,-0.6279 0.19325,-1.69815 -0.0757,-1.69815 -0.30578,0 -0.55748,0.66679 -0.55748,1.47685 0,0.7212 0.38913,0.85721 0.63315,0.2213 z m 4.48961,-23.790859 c 0.0838,-0.21828 0.037,-0.39687 -0.10399,-0.39687 -0.14095,0 -0.25628,0.17859 -0.25628,0.39687 0,0.21828 0.0468,0.39688 0.10399,0.39688 0.0572,0 0.17252,-0.1786 0.25628,-0.39688 z m 0.34413,-2.05052 c -0.0734,-0.1819 -0.13345,-0.0331 -0.13345,0.33073 0,0.3638 0.06,0.51263 0.13345,0.33073 0.0734,-0.1819 0.0734,-0.47956 0,-0.66146 z m 0.61447,-1.47082 c -0.004,-0.38557 -0.0395,-0.39256 -0.26053,-0.0505 -0.33486,0.51815 -0.33486,0.86841 0,0.66146 0.14552,-0.0899 0.26276,-0.36486 0.26053,-0.61093 z M 116.70695,116.5271 c 0.44947,-1.79083 0.59038,-3.01691 0.3629,-3.1575 -0.14538,-0.0899 -0.13397,-0.28373 0.0282,-0.47912 0.14981,-0.18051 0.41931,-1.49146 0.59888,-2.91322 0.31629,-2.50422 0.30781,-2.61749 -0.27128,-3.62369 l -0.59778,-1.03866 0.91971,-0.86739 c 0.98278,-0.92689 1.31442,-1.77041 1.17497,-2.98861 -0.069,-0.60299 -0.24493,-0.78568 -0.85873,-0.89187 -0.42456,-0.0734 -0.81831,-0.273 -0.87501,-0.44345 -0.0654,-0.196688 0.0946,-0.258218 0.43798,-0.168418 0.64932,0.169798 1.03185,-0.56932 0.62691,-1.21128 -0.39808,-0.63109 -0.95606,-0.51888 -1.16559,0.2344 -0.15904,0.57176 -0.18757,0.58629 -0.21037,0.10715 -0.0145,-0.30487 0.21175,-0.7698 0.50279,-1.03319 0.67662,-0.61233 0.66715,-0.8826 -0.12045,-3.43959 -0.35859,-1.16416 -0.90794,-3.09893 -1.22079,-4.29948 -0.36388,-1.3964 -0.69953,-2.182811 -0.93166,-2.182811 -0.19957,0 -0.43533,-0.32742 -0.52392,-0.7276 -0.0886,-0.40019 -0.61658,-2.36057 -1.17331,-4.3564 -0.55673,-1.99584 -0.95449,-3.84961 -0.88392,-4.119487 0.15929,-0.609122 -1.91874,-8.029753 -2.31765,-8.276289 -0.18465,-0.11412 -0.0721,-0.332508 0.30871,-0.599271 0.32958,-0.230845 0.69066,-0.363211 0.80241,-0.294145 0.11175,0.06907 0.27797,0.0046 0.36938,-0.143325 0.0914,-0.147895 0.37238,-0.2689 0.6244,-0.2689 0.34316,0 0.5756,0.448481 0.92562,1.785938 0.25707,0.982266 0.92881,3.274219 1.49277,5.093229 0.56396,1.819011 1.69682,5.56948 2.51746,8.33438 0.82065,2.76489 1.95765,6.585951 2.52667,8.491241 1.72054,5.76101 1.86725,6.73954 1.37695,9.184038 -0.38294,1.90924 -0.38259,2.19389 0.004,3.31903 0.54479,1.58546 1.90863,9.64085 1.71688,10.14054 -0.1418,0.36951 -4.5287,1.54119 -5.77041,1.54119 -0.49039,0 -0.54834,-0.10333 -0.39672,-0.70744 z m -2.60617,-38.643821 c -0.26895,-0.268953 -0.49086,0.135967 -0.27019,0.49302 0.16669,0.269721 0.22901,0.26993 0.31863,0.0011 0.0613,-0.183828 0.0395,-0.406167 -0.0484,-0.494086 z m -0.91652,-3.155167 c -0.29128,-0.996205 -0.66149,-2.317298 -0.8227,-2.935762 -0.16121,-0.618463 -0.40139,-1.124479 -0.53373,-1.124479 -0.14373,0 -0.14491,0.292989 -0.003,0.727604 0.13073,0.400183 0.55142,1.779086 0.93486,3.06423 0.38344,1.285144 0.75497,2.278815 0.82563,2.208158 0.0707,-0.07066 -0.10985,-0.943545 -0.40113,-1.939751 z M 82.338223,114.79441 c -0.46449,-0.66316 -0.56952,-3.25205 -0.14264,-3.51589 0.38664,-0.23895 1.30559,1.93982 1.31245,3.11174 0.007,1.15267 -0.51843,1.33412 -1.16981,0.40415 z m 17.59418,-0.27186 c 0.0175,-1.047 0.796597,-3.15916 1.216837,-3.29897 0.38245,-0.12724 0.73255,1.79379 0.47864,2.62635 -0.47743,1.56548 -1.718657,2.05789 -1.695477,0.67262 z m -8.23852,-0.0439 c -0.0606,-0.0605 -0.0774,-4.22769 -0.0374,-9.26042 0.0625,-7.854258 0.12814,-9.150408 0.46302,-9.150408 0.33638,0 0.39015,1.27627 0.39015,9.260418 0,7.54062 -0.0655,9.26041 -0.35278,9.26041 -0.19403,0 -0.40239,-0.0495 -0.46302,-0.11 z m -14.23486,-5.47222 c -0.16235,-0.46571 -0.30457,-1.09686 -0.31606,-1.40257 -0.0115,-0.30571 -0.0809,-0.407 -0.15434,-0.2251 -0.20968,0.51962 -1.0038,0.38782 -1.59409,-0.26458 -0.86728,-0.95854 -1.5495,-3.63803 -0.92628,-3.63803 0.25318,0 1.31521,1.35767 1.9569,2.50163 0.37284,0.66468 0.45713,0.71306 0.48162,0.2765 l 0.0297,-0.52917 0.22739,0.52917 c 0.19202,0.44686 0.23028,0.39857 0.24599,-0.31043 0.018,-0.81217 1.11126,-2.4677 1.62961,-2.4677 0.72076,0 -0.0752,2.69755 -1.0977,3.72002 -0.53685,0.53685 -0.56115,0.67502 -0.26348,1.4982 0.18035,0.49875 0.27121,0.96351 0.20192,1.03281 -0.0693,0.0693 -0.25882,-0.25505 -0.42117,-0.72075 z m 29.201697,-2.69384 c -0.096,-0.7683 -0.12239,-1.75056 -0.0587,-2.18281 0.0649,-0.44047 0.13593,-0.0881 0.16152,0.80158 l 0.0457,1.5875 0.40778,-0.82661 c 0.22428,-0.45464 0.75735,-1.16152 1.1846,-1.57086 l 0.77683,-0.74424 v 0.8379 c 0,1.68548 -1.07688,3.49444 -2.08024,3.49444 -0.14462,0 -0.34148,-0.62861 -0.43747,-1.3969 z m -31.208307,-3.18342 c -0.544,-0.83026 -0.82073,-3.135698 -0.45434,-3.785238 0.24827,-0.44015 0.34951,-0.34434 0.87166,0.824928 1.00194,2.24365 0.66751,4.61596 -0.41732,2.96031 z m 1.71143,-0.20864 c 0,-0.58001 0.26345,-1.08365 0.89959,-1.71979 0.97347,-0.97347 1.48166,-1.13993 1.48166,-0.48532 0,0.58242 -0.4785,1.44647 -1.27245,2.29771 -0.87392,0.93699 -1.1088,0.91737 -1.1088,-0.0926 z m 28.075357,0.0581 c -0.79434,-0.85035 -1.52464,-2.32885 -1.27408,-2.57941 0.29876,-0.29876 1.77518,0.82585 2.16632,1.65013 0.76173,1.60521 0.24344,2.14503 -0.89224,0.92928 z m 1.70091,0.51478 c -0.37114,-0.60051 0.87518,-4.250548 1.45136,-4.250548 0.14179,0 0.25779,0.69832 0.25779,1.551818 0,1.1693 -0.13517,1.72366 -0.54837,2.24896 -0.5765,0.73291 -0.90672,0.86085 -1.16078,0.44977 z m -0.50712,-2.01182 c -0.0907,-0.23646 -0.15743,-0.56902 -0.14821,-0.73902 0.009,-0.16999 0.13085,-0.0239 0.27027,0.32464 0.13942,0.34855 0.20612,0.68111 0.14821,0.73902 -0.0579,0.0579 -0.17953,-0.0882 -0.27027,-0.32464 z m -29.512837,-0.2764 c 0.0127,-0.30823 0.0754,-0.37092 0.15985,-0.15986 0.0764,0.191 0.067,0.4192 -0.0209,0.50712 -0.0879,0.0879 -0.15045,-0.0683 -0.13896,-0.34726 z m 0.77286,-1.420708 c 0,-0.68045 0.69171,-1.61679 1.46571,-1.98408 1.77882,-0.8441 1.98369,-0.16439 0.38561,1.27938 -1.01648,0.91833 -1.85132,1.236108 -1.85132,0.7047 z m 26.843887,-0.2408 c -0.82331,-0.50206 -1.85824,-1.82675 -1.61624,-2.06874 0.24796,-0.24796 1.7005,0.20546 2.11087,0.65892 0.22325,0.24668 0.5303,0.77572 0.68235,1.17563 0.33723,0.886978 0.003,0.953558 -1.17698,0.23419 z m -28.157497,-0.28343 c -0.55241,-1.03218 -0.14999,-4.25072 0.53147,-4.25072 0.29744,0 0.50998,1.0579 0.51395,2.55804 0.006,2.08746 -0.44433,2.815818 -1.04542,1.69268 z m 29.964477,0.0957 c -0.30689,-0.7519 -0.20572,-3.79327 0.13761,-4.1366 0.21831,-0.21831 0.37476,-0.0937 0.59596,0.47467 0.46965,1.20676 0.4223,3.22421 -0.0876,3.73415 -0.40731,0.40731 -0.45226,0.40229 -0.64593,-0.0722 z m -43.312937,-1.2376 c 0.10463,-0.32742 0.34529,-1.18088 0.53478,-1.89656 0.36385,-1.37421 1.1264,-2.50362 1.05641,-1.56463 -0.0952,1.27743 -1.05847,4.0565 -1.40601,4.0565 -0.26932,0 -0.32166,-0.16825 -0.18518,-0.59531 z m 15.27972,-1.98437 c 0.15242,-0.95885 1.39939,-2.4474 2.05019,-2.4474 0.48892,0 -0.40218,2.19446 -1.22536,3.01764 -0.70763,0.70763 -0.99624,0.5081 -0.82483,-0.57024 z m 26.032897,0.52916 c -0.23044,-0.25466 -0.66138,-1.02856 -0.95765,-1.71979 -0.65339,-1.52441 -0.24926,-1.70159 1.00967,-0.44267 0.59197,0.59198 0.8141,1.06122 0.8141,1.71979 0,1.00891 -0.24189,1.13254 -0.86612,0.44267 z m -10.047937,-7.38512 c 0.1819,-0.0734 0.47955,-0.0734 0.66145,0 0.18191,0.0734 0.0331,0.13345 -0.33072,0.13345 -0.36381,0 -0.51264,-0.06 -0.33073,-0.13345 z m 1.33945,-0.2701 c 0.19099,-0.0764 0.4192,-0.067 0.50712,0.0209 0.0879,0.0879 -0.0684,0.15045 -0.34727,0.13896 -0.30822,-0.0127 -0.37092,-0.0754 -0.15985,-0.15985 z m -10.52606,-0.338061 c -0.62987,-0.39834 -0.20023,-0.48249 0.5215,-0.10214 0.36458,0.19213 0.48333,0.348521 0.26458,0.348441 -0.21828,-8e-5 -0.57202,-0.110921 -0.78608,-0.246301 z m 12.16317,0.0653 c 0.21828,-0.0809 0.635,-0.2567 0.92604,-0.39058 0.5207,-0.23954 0.52095,-0.23685 0.0156,0.16804 -0.28247,0.22631 -0.69919,0.402071 -0.92604,0.390581 -0.35629,-0.018 -0.35841,-0.0409 -0.0156,-0.168041 z m -7.61106,-1.99388 c 0.1214,-1.77152 0.91045,-5.13516 1.14872,-4.89689 0.0568,0.0568 0.003,0.45456 -0.12059,0.8839 -0.12313,0.42934 -0.15086,1.8502 -0.0616,3.15748 l 0.16226,2.37686 0.79375,-0.0124 0.79375,-0.0124 0.0895,-2.10429 c 0.10261,-2.41214 -0.13584,-5.11619 -0.50127,-5.68462 -0.21887,-0.34046 -0.28187,-0.33941 -0.51023,0.008 -0.1433,0.21828 -0.26236,0.26263 -0.26459,0.0986 -0.002,-0.16409 0.17257,-0.44492 0.38844,-0.62407 0.32393,-0.26884 0.43388,-0.21672 0.62941,0.29833 0.61642,1.62372 1.34894,4.77836 1.5119,6.51105 l 0.18041,1.91823 h -2.18565 -2.18565 l 0.13145,-1.91823 z m 0.65906,-1.31818 c -0.0589,-0.47555 -0.10828,-0.15026 -0.10977,0.72287 -0.002,0.87312 0.0467,1.26221 0.10707,0.86463 0.0604,-0.39758 0.0616,-1.11195 0.003,-1.5875 z m -6.46951,1.99231 c -0.36291,-0.55308 -0.47708,-1.31681 -0.5043,-3.37344 l -0.0352,-2.6585 0.17199,2.64583 c 0.12458,1.91646 0.30678,2.84641 0.66093,3.37344 0.26891,0.40018 0.41845,0.7276 0.33231,0.7276 -0.0861,0 -0.36773,-0.32172 -0.62574,-0.71493 z m 15.32073,-0.14497 c 0.18168,-0.32742 0.40474,-1.66687 0.49568,-2.97656 l 0.16533,-2.38125 0.0428,2.19595 c 0.0297,1.52257 -0.081,2.43533 -0.36087,2.97657 -0.22201,0.42933 -0.46433,0.78061 -0.53847,0.78061 -0.0741,0 0.0138,-0.26789 0.19553,-0.59532 z m -14.48469,-9.008956 c -1.30139,-0.726311 0.73156,-1.491781 4.38338,-1.650487 1.51096,-0.06567 1.73189,-0.03638 0.92605,0.122766 -0.80465,0.158907 -0.42413,0.209006 1.5875,0.209006 2.02455,0 2.39732,-0.04956 1.5875,-0.211042 -0.79581,-0.158693 -0.56611,-0.186793 0.92604,-0.113283 3.68218,0.181401 5.62022,0.894875 4.43177,1.631517 -0.43925,0.272259 -13.3558,0.283012 -13.84224,0.01152 z m -1.70203,-1.111332 c 0,-0.363802 0.11906,-0.661458 0.26458,-0.661458 0.14552,0 0.26458,0.297656 0.26458,0.661458 0,0.363802 -0.11906,0.661458 -0.26458,0.661458 -0.14552,0 -0.26458,-0.297656 -0.26458,-0.661458 z m 16.66875,0.147907 c 0,-0.282454 0.10659,-0.579426 0.23686,-0.659939 0.284317,-0.175722 0.621147,0.59088 0.409837,0.932784 -0.26067,0.421779 -0.646697,0.258913 -0.646697,-0.272845 z m -15.52293,-1.714053 c 0.0986,-0.257064 0.25721,-0.78375 0.35237,-1.170413 0.6836,-2.777696 3.87623,-5.06865 7.06356,-5.06865 3.22444,0 6.32196,2.167106 7.15514,5.005934 0.23149,0.788732 0.37828,1.476673 0.3262,1.528757 -0.0521,0.05208 -0.43329,-0.03403 -0.84712,-0.19137 -0.41383,-0.157338 -2.00792,-0.462538 -3.54242,-0.678223 -2.23994,-0.314839 -3.28557,-0.334815 -5.30355,-0.10132 -2.33924,0.270667 -3.92976,0.584807 -4.95727,0.979103 -0.32462,0.124567 -0.3835,0.05212 -0.24691,-0.303818 z m -15.54671,-7.71317 c -0.30756,-0.307552 -0.41578,-0.957894 -0.41578,-2.498539 0,-1.789452 0.0752,-2.135465 0.53427,-2.456978 0.76863,-0.538373 1.83334,-0.253057 2.15414,0.577257 0.43618,1.128948 0.15224,3.997222 -0.43845,4.429146 -0.65685,0.480303 -1.32143,0.461866 -1.83418,-0.05089 z m 1.17172,-2.362351 c 0,-0.970139 -0.11533,-1.719792 -0.26458,-1.719792 -0.29121,0 -0.37174,2.979652 -0.0882,3.263195 0.32223,0.322233 0.35278,0.188599 0.35278,-1.543403 z m 7.07761,2.492349 c -0.38177,-0.222358 -0.46303,-0.652758 -0.46303,-2.45258 0,-2.443981 0.19889,-2.817894 1.49882,-2.817894 0.95279,0 1.4116,0.553335 1.4116,1.702398 0,0.54772 -0.12777,0.678852 -0.66146,0.678852 -0.55856,0 -0.66146,-0.123472 -0.66146,-0.79375 0,-0.436563 -0.11906,-0.79375 -0.26458,-0.79375 -0.15119,0 -0.26458,0.79375 -0.26458,1.852083 0,1.058334 0.11339,1.852084 0.26458,1.852084 0.14552,0 0.26458,-0.297657 0.26458,-0.661459 0,-0.529166 0.1323,-0.661458 0.66146,-0.661458 0.52917,0 0.66146,0.132292 0.66146,0.661458 0,1.273352 -1.35755,2.06879 -2.44739,1.434016 z m 20.43906,-0.243391 c -0.44616,-0.44616 -0.52917,-0.881944 -0.52917,-2.778125 0,-2.213012 0.0104,-2.248958 0.65116,-2.248958 0.63549,0 0.65328,0.0557 0.73934,2.315104 l 0.0882,2.315104 0.0544,-2.315104 c 0.0536,-2.278547 0.0649,-2.315104 0.71587,-2.315104 0.65616,0 0.66146,0.0189 0.66146,2.362351 0,1.794814 -0.0999,2.462238 -0.41578,2.778125 -0.56626,0.566265 -1.32987,0.522211 -1.96547,-0.113393 z m 3.968747,0.336315 c -0.67075,-0.255332 -0.7855,-0.658937 -0.7897,-2.777611 -0.004,-1.879085 0.0483,-2.078725 0.64331,-2.468589 0.55661,-0.364705 0.75134,-0.374569 1.38906,-0.07037 0.58689,0.279956 0.75884,0.560502 0.82382,1.344111 0.0747,0.901547 0.0229,0.990308 -0.57855,0.990308 -0.54709,0 -0.67901,-0.147828 -0.76738,-0.859896 -0.0587,-0.472943 -0.10792,0.03307 -0.10941,1.124479 -0.002,1.091407 0.0469,1.656953 0.10752,1.256771 0.0855,-0.564231 0.2548,-0.727604 0.75411,-0.727604 0.53124,0 0.64389,0.131685 0.64389,0.752743 0,1.194671 -0.98848,1.865117 -2.11667,1.435655 z m 3.36295,-0.137877 c -0.34541,-0.258246 -0.45796,-0.852607 -0.51359,-2.711979 -0.0686,-2.29286 -0.0491,-2.384389 0.52408,-2.465798 0.57789,-0.08208 0.59531,-0.01776 0.59531,2.198427 0,1.454609 0.096,2.223642 0.26458,2.119454 0.14552,-0.08994 0.26459,-1.108995 0.26459,-2.264573 0,-1.924663 0.0444,-2.101052 0.52916,-2.101052 0.4919,0 0.52917,0.176389 0.52917,2.504233 0,2.205072 -0.0611,2.536952 -0.51177,2.778125 -0.67539,0.361453 -1.14321,0.34564 -1.68153,-0.05684 z m 3.45007,0.118356 c -0.404,-0.07941 -0.46302,-0.427937 -0.46302,-2.734208 v -2.643196 l 0.85989,0.08291 c 0.75269,0.07257 0.8803,0.198368 1.02351,1.008951 l 0.16361,0.926042 0.0348,-0.992188 c 0.0334,-0.950905 0.0734,-0.992187 0.96087,-0.992187 h 0.92604 v 2.645833 c 0,2.469445 -0.0353,2.645834 -0.52917,2.645834 -0.43437,0 -0.52989,-0.17774 -0.53321,-0.992188 -0.003,-0.738024 -0.0698,-0.890522 -0.26054,-0.595312 -0.14106,0.218281 -0.2583,0.664765 -0.26053,0.992187 -0.008,1.156178 -0.75621,0.649676 -0.97728,-0.661458 l -0.21191,-1.256771 -0.13504,1.328381 c -0.11036,1.085663 -0.21963,1.311752 -0.59805,1.237371 z M 64.728433,65.376194 v -2.645833 h 0.9044 c 1.35049,0 1.71023,0.226091 1.89075,1.188311 0.19865,1.058898 -0.24612,1.986689 -0.95238,1.986689 -0.43011,0 -0.51986,0.182706 -0.51986,1.058333 0,0.9525 -0.0661,1.058334 -0.66145,1.058334 h -0.66146 z m 1.85208,-1.058333 c 0,-0.291042 -0.11906,-0.529167 -0.26458,-0.529167 -0.14552,0 -0.26459,0.238125 -0.26459,0.529167 0,0.291042 0.11907,0.529167 0.26459,0.529167 0.14552,0 0.26458,-0.238125 0.26458,-0.529167 z m 5.02708,1.058333 v -2.645833 h 0.66146 c 0.65044,0 0.66146,0.03528 0.66146,2.116667 0,1.705092 0.0772,2.116666 0.39688,2.116666 0.22048,0 0.39687,0.235186 0.39687,0.529167 0,0.440972 -0.17639,0.529167 -1.05833,0.529167 h -1.05834 z m 2.64584,0 v -2.645833 h 0.66146 0.66145 v 2.645833 2.645834 h -0.66145 -0.66146 z m 5.55625,0 v -2.645833 h 0.66146 0.66145 v 2.645833 2.645834 h -0.66145 -0.66146 z m 1.85208,2.333023 c 0,-0.172045 0.13544,-1.368881 0.30097,-2.659636 l 0.30097,-2.346825 0.9558,0.07995 0.9558,0.07995 0.18557,1.719791 c 0.10207,0.945886 0.25629,2.106745 0.34272,2.579688 0.14366,0.786076 0.0993,0.859896 -0.5163,0.859896 -0.42223,0 -0.67345,-0.148047 -0.67345,-0.396875 0,-0.218282 -0.11906,-0.396875 -0.26458,-0.396875 -0.14552,0 -0.26458,0.178593 -0.26458,0.396875 0,0.246944 -0.24988,0.396875 -0.66146,0.396875 -0.3638,0 -0.66146,-0.140765 -0.66146,-0.312811 z m 1.67993,-2.209204 c -0.20987,-0.546924 -0.35701,-0.482474 -0.35701,0.15638 0,0.299629 0.11386,0.47441 0.25303,0.388401 0.13916,-0.08601 0.18595,-0.33116 0.10398,-0.544781 z m 3.08257,-0.123819 v -2.645833 h 1.19718 c 1.04163,0 1.23069,0.08818 1.4552,0.678683 0.36415,0.957791 0.32325,3.912775 -0.0595,4.295484 -0.17462,0.174625 -0.82947,0.3175 -1.45521,0.3175 h -1.1377 z m 1.5875,0 c 0,-0.881944 -0.11759,-1.5875 -0.26458,-1.5875 -0.14699,0 -0.26459,0.705556 -0.26459,1.5875 0,0.881945 0.1176,1.5875 0.26459,1.5875 0.14699,0 0.26458,-0.705555 0.26458,-1.5875 z m 1.85208,0.01521 v -2.661043 h 1.05834 c 0.88194,0 1.05833,0.08819 1.05833,0.529167 0,0.293981 -0.17639,0.529166 -0.39687,0.529166 -0.22049,0 -0.39688,0.235185 -0.39688,0.529167 0,0.293981 0.17639,0.529167 0.39688,0.529167 0.22048,0 0.39687,0.235185 0.39687,0.529166 0,0.293982 -0.17639,0.529167 -0.39687,0.529167 -0.61215,0 -0.47528,0.976113 0.16016,1.142286 0.91562,0.239438 0.41453,0.835703 -0.77604,0.923448 l -1.10392,0.08136 v -2.661047 z m 4.49792,0.513953 c 0,-1.705093 -0.0772,-2.116667 -0.39687,-2.116667 -0.22049,0 -0.39688,-0.235185 -0.39688,-0.529166 0,-0.458611 0.17639,-0.529167 1.32292,-0.529167 1.14653,0 1.32292,0.07056 1.32292,0.529167 0,0.291041 -0.11907,0.529166 -0.26459,0.529166 -0.15434,0 -0.26458,0.881945 -0.26458,2.116667 0,2.081389 -0.011,2.116667 -0.66146,2.116667 -0.65043,0 -0.66146,-0.03528 -0.66146,-2.116667 z m 17.837247,0.06615 c 0.27664,-3.097198 0.33587,-3.241146 1.33363,-3.241146 h 0.85727 l 0.30501,2.182812 c 0.42308,3.027671 0.41426,3.108855 -0.33771,3.108855 -0.389,0 -0.68975,-0.182493 -0.76306,-0.463021 -0.11524,-0.440972 -0.12246,-0.440972 -0.15169,0 -0.021,0.316199 -0.25201,0.463021 -0.72865,0.463021 h -0.69795 z m 1.39611,-0.788715 c -0.0671,-0.257431 -0.12638,-0.110869 -0.13178,0.325694 -0.005,0.436562 0.0495,0.647188 0.12198,0.468056 0.0725,-0.179131 0.0769,-0.536319 0.01,-0.79375 z m 1.93331,0.175 c 0,-2.590952 0.016,-2.66191 0.57967,-2.579687 0.40232,0.05868 0.66289,0.367887 0.85165,1.010589 l 0.27198,0.926042 0.0904,-0.992188 c 0.0705,-0.774446 0.20299,-0.992187 0.60356,-0.992187 0.47366,0 0.5132,0.203837 0.5132,2.645833 0,2.608699 -0.009,2.645834 -0.62839,2.645834 -0.48911,0 -0.67532,-0.190582 -0.84017,-0.859896 l -0.2118,-0.859896 -0.10262,0.859896 c -0.0762,0.638801 -0.23438,0.859896 -0.61504,0.859896 -0.47289,0 -0.5124,-0.205443 -0.5124,-2.664236 z"
       id="path145"
       inkscape:connector-curvature="0" />
  </g>
</svg>
